<?xml version="1.0" standalone="no"?>
<!DOCTYPE svg PUBLIC "-//W3C//DTD SVG 1.1//EN" "http://www.w3.org/Graphics/SVG/1.1/DTD/svg11.dtd" >
<svg>
<metadata>
Created by FontForge 20110222 at Fri Jan 16 16:58:16 2015
 By deploy user
Modified Akzidenz Grotesk.
</metadata>
<defs>
<font id="Regnzidenz-Bold" horiz-adv-x="556" >
  <font-face 
    font-family="Regnzidenz Bold"
    font-weight="400"
    font-stretch="normal"
    units-per-em="1000"
    panose-1="0 0 5 0 0 0 0 0 0 0"
    ascent="800"
    descent="-200"
    x-height="506"
    cap-height="712"
    bbox="-168 -225 1934 943"
    underline-thickness="50"
    underline-position="-50"
    unicode-range="U+0020-FB02"
  />
<missing-glyph horiz-adv-x="278" 
 />
    <glyph glyph-name=".notdef" horiz-adv-x="278" 
 />
    <glyph glyph-name=".null" horiz-adv-x="0" 
 />
    <glyph glyph-name="nonmarkingreturn" horiz-adv-x="333" 
 />
    <glyph glyph-name="space" unicode=" " horiz-adv-x="278" 
 />
    <glyph glyph-name="exclam" unicode="!" horiz-adv-x="260" 
d="M197 712l-2 -174q0 -74 -9.5 -163t-18.5 -141l-9 -51h-56q-37 188 -37 355l-2 174h134zM130 -1q-29 0 -50.5 21t-21.5 51t21.5 51.5t50.5 21.5q30 0 51.5 -21.5t21.5 -51.5t-21.5 -51t-51.5 -21z" />
    <glyph glyph-name="quotedbl" unicode="&#x22;" horiz-adv-x="389" 
d="M163 712v-278h-94v278h94zM320 712v-278h-94v278h94z" />
    <glyph glyph-name="numbersign" unicode="#" 
d="M126 277l18 126h-84v88h97l27 189h95l-27 -189h96l27 189h95l-27 -189h84v-88h-97l-18 -126h84v-88h-97l-27 -189h-95l27 189h-96l-27 -189h-95l27 189h-84v88h97zM239 403l-18 -126h96l18 126h-96z" />
    <glyph glyph-name="dollar" unicode="$" 
d="M25 181h122q17 -67 91 -81v201q-98 37 -130 60q-69 49 -69 142q0 82 59.5 134.5t139.5 54.5v81l88 30v-111q23 -1 46.5 -6.5t50.5 -19t48 -33.5t34.5 -53.5t13.5 -74.5h-112q0 27 -23.5 48.5t-57.5 26.5v-166q48 -15 79 -29t63 -37.5t47.5 -59t15.5 -83.5q0 -51 -20 -93
t-51.5 -68t-66 -40.5t-67.5 -15.5v-98l-88 -20v118q-68 2 -140.5 61.5t-72.5 131.5zM238 440v140q-65 -12 -65 -70q0 -32 17 -47t48 -23zM326 272v-172q30 10 50.5 34.5t20.5 56.5q0 61 -71 81z" />
    <glyph glyph-name="percent" unicode="%" horiz-adv-x="1000" 
d="M751 718l-416 -756h-87l416 756h87zM277 692q78 0 120 -50t42 -131t-42 -131t-120 -50t-120 50t-42 131t42 131t120 50zM277 616q-62 0 -62 -105t62 -105t62 105t-62 105zM723 350q78 0 120 -50t42 -131t-42 -131t-120 -50t-120 50t-42 131t42 131t120 50zM723 274
q-62 0 -62 -105t62 -105t62 105t-62 105z" />
    <glyph glyph-name="ampersand" unicode="&#x26;" horiz-adv-x="676" 
d="M348 360l141 -145q16 18 26 57t10 61h112q0 -133 -66 -200q37 -33 64 -33q17 0 30 3v-97q-24 -6 -59 -6q-73 0 -115 42q-86 -54 -218 -54q-105 0 -174.5 55.5t-69.5 150.5q0 66 44 122t107 87q-35 56 -35 105q0 73 50.5 119.5t125.5 46.5q72 0 116 -42t44 -108
q0 -62 -34.5 -99.5t-98.5 -64.5zM320 580q-26 0 -39.5 -17t-13.5 -38q0 -35 32 -75q31 6 53.5 24.5t22.5 48.5q0 25 -15 41t-40 16zM409 128l-170 183q-38 -12 -63 -42.5t-25 -69.5q0 -50 38 -77.5t92 -27.5q77 0 128 34z" />
    <glyph glyph-name="quotesingle" unicode="'" horiz-adv-x="278" 
d="M186 712v-278h-94v278h94z" />
    <glyph glyph-name="parenleft" unicode="(" horiz-adv-x="352" 
d="M299 742l32 -49q-77 -73 -112.5 -180t-35.5 -213t35.5 -213t112.5 -180l-32 -49q-125 96 -187.5 201.5t-62.5 240.5t62.5 240.5t187.5 201.5z" />
    <glyph glyph-name="parenright" unicode=")" horiz-adv-x="352" 
d="M53 -142l-32 49q77 73 112.5 180t35.5 213t-35.5 213t-112.5 180l32 49q125 -96 187.5 -201.5t62.5 -240.5t-62.5 -240.5t-187.5 -201.5z" />
    <glyph glyph-name="asterisk" unicode="*" horiz-adv-x="352" 
d="M236 544l60 -83l-60 -43l-60 86l-60 -86l-58 43l58 83l-94 30l22 68l94 -30v100h75v-100l93 30l24 -68z" />
    <glyph glyph-name="plus" unicode="+" horiz-adv-x="600" 
d="M47 203v100h203v203h100v-203h203v-100h-203v-203h-100v203h-203z" />
    <glyph glyph-name="comma" unicode="," horiz-adv-x="278" 
d="M211 44v-10q0 -125 -132 -143v61q51 5 51 47q-27 3 -45.5 24t-18.5 48q0 30 21.5 51.5t50.5 21.5q32 0 52.5 -26t20.5 -74z" />
    <glyph glyph-name="hyphen" unicode="-" horiz-adv-x="333" 
d="M291 348v-112h-249v112h249z" />
    <glyph glyph-name="period" unicode="." horiz-adv-x="278" 
d="M138 -1q-29 0 -50.5 21t-21.5 51t21.5 51.5t50.5 21.5q30 0 51.5 -21.5t21.5 -51.5t-21.5 -51t-51.5 -21z" />
    <glyph glyph-name="slash" unicode="/" horiz-adv-x="463" 
d="M455 730l-338 -748h-109l338 748h109z" />
    <glyph glyph-name="zero" unicode="0" 
d="M278 692q124 0 186 -92.5t62 -259.5t-62 -259.5t-186 -92.5t-186 92.5t-62 259.5t62 259.5t186 92.5zM278 580q-58 0 -86 -57.5t-28 -182.5t28 -182.5t86 -57.5t86 57.5t28 182.5t-28 182.5t-86 57.5z" />
    <glyph glyph-name="one" unicode="1" 
d="M258 0v406q0 41 -11 54t-46 13h-108v82h20q84 0 118.5 30.5t48.5 94.5h100v-680h-122z" />
    <glyph glyph-name="two" unicode="2" 
d="M170 420l-122 9q0 122 57.5 192.5t176.5 70.5q97 0 156.5 -57.5t59.5 -153.5q0 -43 -13.5 -83.5t-32 -70t-52 -64t-58 -54t-67 -53.5t-61.5 -50h294v-106h-460v106q33 20 70 46.5t81 65.5t78.5 78.5t57.5 86t23 87.5q0 104 -91 104q-53 0 -75 -39.5t-22 -114.5z" />
    <glyph glyph-name="three" unicode="3" 
d="M230 412h49q40 0 64.5 19t24.5 57q0 43 -23.5 67.5t-66.5 24.5q-49 0 -77.5 -35.5t-28.5 -81.5h-123q0 113 66.5 171t172.5 58q90 0 152 -47.5t62 -134.5q0 -114 -112 -143v-2q127 -30 129 -168q0 -101 -71 -155t-175 -54q-108 0 -172 56t-64 178h128q0 -56 28.5 -89
t83.5 -33q47 0 74.5 29t27.5 76q0 53 -28 77t-72 24h-49v106z" />
    <glyph glyph-name="four" unicode="4" 
d="M24 156v94l298 430h125v-418h85v-106h-85v-156h-122v156h-301zM323 536l-171 -274h173v274h-2z" />
    <glyph glyph-name="five" unicode="5" 
d="M484 680l-13 -118h-263l-21 -142q54 48 122 48q104 0 159 -66t55 -167q0 -114 -71 -180.5t-182 -66.5q-101 0 -167 51t-70 149l140 11q1 -44 27.5 -74.5t70.5 -30.5q57 0 84.5 40.5t27.5 99.5q0 65 -30.5 96.5t-83.5 31.5q-68 0 -97 -65l-116 9l48 374h380z" />
    <glyph glyph-name="six" unicode="6" 
d="M503 502h-122q-4 36 -27 57t-58 21q-34 0 -59 -20.5t-37 -54t-17.5 -66t-5.5 -66.5h2q43 63 133 63q94 0 147.5 -61.5t53.5 -162.5q0 -96 -63.5 -160t-163.5 -64q-57 0 -101 20t-70.5 52t-43 77t-22.5 90t-6 96q0 167 65 268t189 101q84 0 139 -51.5t67 -138.5zM286 324
q-48 0 -73.5 -29.5t-25.5 -82.5t25.5 -82.5t73.5 -29.5t73.5 29.5t25.5 82.5t-25.5 82.5t-73.5 29.5z" />
    <glyph glyph-name="seven" unicode="7" 
d="M508 680v-112q-78 -75 -148.5 -242.5t-82.5 -325.5h-164q37 291 249 556h-303v124h449z" />
    <glyph glyph-name="eight" unicode="8" 
d="M278 692q46 0 86.5 -11t74 -33.5t53 -63t19.5 -94.5q0 -40 -22.5 -77.5t-61.5 -57.5q104 -52 104 -158q0 -54 -22.5 -95.5t-60 -65.5t-81 -36t-89.5 -12t-89.5 12t-81 36t-60 65.5t-22.5 95.5q0 106 104 158q-39 20 -61.5 57.5t-22.5 77.5q0 54 19.5 94.5t53 63t74 33.5
t86.5 11zM179 490q0 -90 99 -90t99 90t-99 90t-99 -90zM165 197q0 -49 30.5 -73t82.5 -24t82.5 24t30.5 73t-30.5 73t-82.5 24t-82.5 -24t-30.5 -73z" />
    <glyph glyph-name="nine" unicode="9" 
d="M53 178h122q4 -36 27 -57t58 -21q34 0 59 20.5t37 54t17.5 66t5.5 66.5h-2q-43 -63 -133 -63q-94 0 -147.5 61.5t-53.5 162.5q0 96 63.5 160t163.5 64q57 0 101 -20t70.5 -52t43 -77t22.5 -90t6 -96q0 -167 -65 -268t-189 -101q-84 0 -139 51.5t-67 138.5zM270 356
q48 0 73.5 29.5t25.5 82.5t-25.5 82.5t-73.5 29.5t-73.5 -29.5t-25.5 -82.5t25.5 -82.5t73.5 -29.5z" />
    <glyph glyph-name="colon" unicode=":" horiz-adv-x="278" 
d="M139 368q-29 0 -50.5 21t-21.5 51t21.5 51.5t50.5 21.5q30 0 51.5 -21.5t21.5 -51.5t-21.5 -51t-51.5 -21zM139 -1q-29 0 -50.5 21t-21.5 51t21.5 51.5t50.5 21.5q30 0 51.5 -21.5t21.5 -51.5t-21.5 -51t-51.5 -21z" />
    <glyph glyph-name="semicolon" unicode=";" horiz-adv-x="278" 
d="M138 368q-29 0 -50.5 21t-21.5 51t21.5 51.5t50.5 21.5q30 0 51.5 -21.5t21.5 -51.5t-21.5 -51t-51.5 -21zM211 44v-10q0 -125 -132 -143v61q51 5 51 47q-27 3 -45.5 24t-18.5 48q0 30 21.5 51.5t50.5 21.5q32 0 52.5 -26t20.5 -74z" />
    <glyph glyph-name="less" unicode="&#x3c;" horiz-adv-x="600" 
d="M47 291l506 223v-106l-371 -155l371 -155v-106l-506 223v76z" />
    <glyph glyph-name="equal" unicode="=" horiz-adv-x="600" 
d="M553 408v-100h-506v100h506zM553 198v-100h-506v100h506z" />
    <glyph glyph-name="greater" unicode="&#x3e;" horiz-adv-x="600" 
d="M553 215l-506 -223v106l371 155l-371 155v106l506 -223v-76z" />
    <glyph glyph-name="question" unicode="?" horiz-adv-x="574" 
d="M231 183v57q0 64 12.5 98t53.5 60q30 20 43.5 29.5t29 33.5t15.5 52q0 43 -30 71t-77 28q-112 0 -117 -119h-122q4 110 71 173.5t177 63.5q99 0 168.5 -58t69.5 -154q0 -49 -18.5 -86.5t-42 -59t-69.5 -53.5q-29 -20 -40.5 -42.5t-11.5 -56.5v-37h-112zM287 -1
q-29 0 -50.5 21t-21.5 51t21.5 51.5t50.5 21.5q30 0 51.5 -21.5t21.5 -51.5t-21.5 -51t-51.5 -21z" />
    <glyph glyph-name="at" unicode="@" horiz-adv-x="800" 
d="M625 547l-69 -265q-8 -30 -8 -42q0 -21 20 -21q43 0 80.5 55.5t37.5 132.5q0 114 -77 180.5t-193 66.5q-128 0 -209 -86t-81 -214q0 -129 84 -212.5t211 -83.5q80 0 133.5 22t95.5 68h79q-108 -166 -312 -166q-165 0 -272 105.5t-107 269.5q0 157 111 265t268 108
q140 0 242.5 -86.5t102.5 -220.5q0 -56 -18 -105.5t-46 -82.5t-61.5 -57.5t-64.5 -35.5t-55 -11q-26 0 -42.5 16.5t-17.5 45.5h-2q-58 -62 -117 -62q-71 0 -111.5 49t-40.5 120q0 110 63 185.5t153 75.5q89 0 123 -72l17 58h83zM286 296q0 -35 17 -56t47 -21
q60 0 100.5 54.5t40.5 111.5q0 41 -20 64.5t-53 23.5q-57 0 -94.5 -54t-37.5 -123z" />
    <glyph glyph-name="A" unicode="A" horiz-adv-x="630" 
d="M393 712l238 -712h-140l-41 138h-270l-41 -138h-140l238 712h156zM314 582l-98 -326h198l-98 326h-2z" />
    <glyph glyph-name="B" unicode="B" horiz-adv-x="607" 
d="M65 712h275q92 0 151.5 -46t59.5 -131q0 -58 -31 -95.5t-90 -48.5v-2q71 -7 112 -58t41 -118q0 -64 -21.5 -108t-61.5 -66t-85.5 -30.5t-106.5 -8.5h-243v712zM199 426h99q49 0 81 21.5t32 69.5q0 89 -113 89h-99v-180zM199 118h114q64 0 97 23t33 76q0 109 -131 109
h-113v-208z" />
    <glyph glyph-name="C" unicode="C" horiz-adv-x="685" 
d="M666 500h-129q-8 46 -52.5 76t-104.5 30q-99 0 -150 -73.5t-51 -176.5t51 -176.5t150 -73.5q65 0 102 30.5t59 86.5h133q-11 -105 -97.5 -173t-196.5 -68q-163 0 -252 107t-89 267q0 102 40 186t119 136t182 52q111 0 191 -61t95 -169z" />
    <glyph glyph-name="D" unicode="D" horiz-adv-x="684" 
d="M65 712h230q177 0 263.5 -97t86.5 -259q0 -174 -83 -265t-242 -91h-255v712zM199 124h102q105 0 154.5 50t49.5 182q0 110 -50.5 171t-156.5 61h-99v-464z" />
    <glyph glyph-name="E" unicode="E" horiz-adv-x="581" 
d="M539 712v-124h-340v-162h340v-118h-340v-184h350v-124h-484v712h474z" />
    <glyph glyph-name="F" unicode="F" horiz-adv-x="533" 
d="M491 712v-124h-292v-170h292v-118h-292v-300h-134v712h426z" />
    <glyph glyph-name="G" unicode="G" horiz-adv-x="741" 
d="M670 500h-126q-5 30 -46.5 68t-117.5 38q-99 0 -150 -73.5t-51 -176.5t51 -176.5t150 -73.5q73 0 127 46.5t54 118.5h-176v118h298v-389h-116v61q-34 -38 -85.5 -58.5t-101.5 -20.5q-163 0 -252 107t-89 267q0 102 40 186t119 136t182 52q112 0 191.5 -61t98.5 -169z" />
    <glyph glyph-name="H" unicode="H" horiz-adv-x="704" 
d="M199 712v-267h306v267h134v-712h-134v321h-306v-321h-134v712h134z" />
    <glyph glyph-name="I" unicode="I" horiz-adv-x="278" 
d="M206 712v-712h-134v712h134z" />
    <glyph glyph-name="J" unicode="J" horiz-adv-x="389" 
d="M317 712v-539q0 -54 -20.5 -93.5t-54.5 -59.5t-69 -29t-72 -9q-62 0 -89 18v119q40 -7 70 -7q101 0 101 111v489h134z" />
    <glyph glyph-name="K" unicode="K" horiz-adv-x="648" 
d="M199 712v-320l282 320h159l-233 -270l249 -442h-155l-188 333l-114 -129v-204h-134v712h134z" />
    <glyph glyph-name="L" unicode="L" horiz-adv-x="500" 
d="M199 712v-588h289v-124h-423v712h134z" />
    <glyph glyph-name="M" unicode="M" horiz-adv-x="856" 
d="M280 712l150 -542h2l150 542h209v-712h-128v594h-2l-170 -594h-126l-170 594h-2v-594h-128v712h215z" />
    <glyph glyph-name="N" unicode="N" horiz-adv-x="716" 
d="M203 712l319 -507h2v507h122v-712h-133l-319 507h-2v-507h-122v712h133z" />
    <glyph glyph-name="O" unicode="O" horiz-adv-x="780" 
d="M390 730q156 0 253.5 -109.5t97.5 -264.5t-97.5 -264.5t-253.5 -109.5t-253.5 109.5t-97.5 264.5t97.5 264.5t253.5 109.5zM390 606q-100 0 -155.5 -74.5t-55.5 -175.5t55.5 -175.5t155.5 -74.5t155.5 74.5t55.5 175.5t-55.5 175.5t-155.5 74.5z" />
    <glyph glyph-name="P" unicode="P" horiz-adv-x="611" 
d="M65 712h283q121 0 185 -66t64 -174q0 -105 -66.5 -168.5t-173.5 -63.5h-158v-240h-134v712zM199 352h133q61 0 93 32.5t32 87.5q0 70 -33.5 99t-96.5 29h-128v-248z" />
    <glyph glyph-name="Q" unicode="Q" horiz-adv-x="778" 
d="M709 -32l-120 88q-87 -74 -209 -74q-103 0 -182 52t-119 136t-40 186t40 186t119 136t182 52t182 -52t119 -136t40 -186q0 -118 -57 -212l115 -87zM380 606q-99 0 -150 -73.5t-51 -176.5t51 -176.5t150 -73.5t150 73.5t51 176.5t-51 176.5t-150 73.5z" />
    <glyph glyph-name="R" unicode="R" horiz-adv-x="600" 
d="M65 712h267q111 0 175.5 -59.5t64.5 -155.5q0 -45 -12.5 -82t-26.5 -57t-38.5 -37.5t-35 -22t-28.5 -11.5l159 -287h-155l-138 262h-98v-262h-134v712zM199 380h116q52 0 84.5 29t32.5 78q0 50 -34.5 78.5t-102.5 28.5h-96v-214z" />
    <glyph glyph-name="S" unicode="S" horiz-adv-x="648" 
d="M34 197h140q18 -39 56.5 -65t98.5 -26q59 0 105 22t46 69q0 39 -33 57t-114 37l-79 18q-48 11 -82.5 24t-66.5 35.5t-48.5 57.5t-16.5 82q0 105 83 163.5t193 58.5q99 0 190.5 -55.5t91.5 -132.5h-141q-21 64 -142 64q-59 0 -97 -21t-38 -58q0 -17 8.5 -30.5t19 -21.5
t34.5 -16.5t38 -12t47 -10.5l87 -19q45 -10 78 -23t64 -35t47.5 -58t16.5 -85q0 -62 -27.5 -109.5t-73.5 -73.5t-99 -38.5t-112 -12.5q-61 0 -123 26t-106.5 77t-44.5 112z" />
    <glyph glyph-name="T" unicode="T" horiz-adv-x="538" 
d="M7 588v124h524v-124h-195v-588h-134v588h-195z" />
    <glyph glyph-name="U" unicode="U" horiz-adv-x="704" 
d="M639 712v-493q0 -108 -78.5 -172.5t-208.5 -64.5t-208.5 64.5t-78.5 172.5v493h134v-458q0 -69 35 -105.5t118 -36.5t118 36.5t35 105.5v458h134z" />
    <glyph glyph-name="V" unicode="V" horiz-adv-x="594" 
d="M139 712l157 -568h2l157 568h140l-208 -712h-180l-208 712h140z" />
    <glyph glyph-name="W" unicode="W" horiz-adv-x="834" 
d="M144 712l98 -536h4l108 536h134l105 -530h2l95 530h135l-146 -712h-166l-95 492h-2l-95 -492h-166l-146 712h135z" />
    <glyph glyph-name="X" unicode="X" horiz-adv-x="648" 
d="M41 712h155l128 -206l128 206h155l-203 -327l238 -385h-154l-164 265l-164 -265h-154l238 385z" />
    <glyph glyph-name="Y" unicode="Y" horiz-adv-x="630" 
d="M11 712h149l155 -294l155 294h149l-237 -434v-278h-134v278z" />
    <glyph glyph-name="Z" unicode="Z" horiz-adv-x="593" 
d="M403 594h-351v118h522v-118l-383 -476h383v-118h-555v118z" />
    <glyph glyph-name="bracketleft" unicode="[" horiz-adv-x="352" 
d="M331 712v-100h-136v-624h136v-100h-264v824h264z" />
    <glyph glyph-name="backslash" unicode="\" horiz-adv-x="463" 
d="M346 -18l-338 748h109l338 -748h-109z" />
    <glyph glyph-name="bracketright" unicode="]" horiz-adv-x="352" 
d="M21 -112v100h136v624h-136v100h264v-824h-264z" />
    <glyph glyph-name="asciicircum" unicode="^" horiz-adv-x="600" 
d="M344 680l199 -404h-105l-138 286l-138 -286h-105l199 404h88z" />
    <glyph glyph-name="underscore" unicode="_" horiz-adv-x="500" 
d="M500 -75v-50h-500v50h500z" />
    <glyph glyph-name="grave" unicode="`" horiz-adv-x="241" 
d="M113 568l-142 144h134l91 -144h-83z" />
    <glyph glyph-name="a" unicode="a" horiz-adv-x="527" 
d="M483 85v-85h-120q-2 33 -2 46q-72 -58 -165 -58q-74 0 -123 43.5t-49 115.5q0 68 44.5 106.5t109.5 51.5l51 10q112 23 132 30v15q0 64 -96 64q-54 0 -77 -17.5t-23 -58.5h-116q0 84 62.5 127t153.5 43q46 0 81 -6t68 -22.5t51 -51t18 -86.5v-267zM361 246l-58 -11
l-67 -14q-41 -8 -62.5 -22.5t-21.5 -47.5q0 -28 22.5 -45.5t56.5 -17.5q49 0 89.5 24t40.5 69v65z" />
    <glyph glyph-name="b" unicode="b" horiz-adv-x="574" 
d="M182 712v-249q60 55 144 55q96 0 158 -77t62 -188t-62 -188t-158 -77q-91 0 -142 61h-2v-49h-122v712h122zM298 406q-63 0 -91 -44.5t-29 -108.5q1 -64 29 -108.5t91 -44.5t91 44.5t29 108.5q-1 64 -29 108.5t-91 44.5z" />
    <glyph glyph-name="c" unicode="c" horiz-adv-x="519" 
d="M501 351h-114q-22 55 -100 55q-62 0 -96.5 -45t-34.5 -108q0 -64 32 -108.5t92 -44.5q50 0 72 18.5t39 56.5h116q-11 -79 -71 -133t-158 -54q-114 0 -182 74.5t-68 190.5t69.5 190.5t189.5 74.5q88 0 144 -47t70 -120z" />
    <glyph glyph-name="d" unicode="d" horiz-adv-x="574" 
d="M392 49h-2q-51 -61 -142 -61q-96 0 -158 77t-62 188t62 188t158 77q84 0 144 -55v249h122v-712h-122v49zM276 406q-63 0 -91 -44.5t-29 -108.5q1 -64 29 -108.5t91 -44.5t91 44.5t29 108.5q-1 64 -29 108.5t-91 44.5z" />
    <glyph glyph-name="e" unicode="e" 
d="M530 224h-374q1 -54 40 -89t91 -35q82 -4 114 42h121q-57 -154 -235 -154q-120 0 -189.5 74.5t-69.5 190.5t69.5 190.5t189.5 74.5q243 0 243 -294zM156 318h246q0 29 -30.5 64.5t-84.5 35.5q-51 0 -86 -28.5t-45 -71.5z" />
    <glyph glyph-name="f" unicode="f" horiz-adv-x="315" 
d="M5 418v88h74v50q0 74 43 115t106 41q37 0 82 -13v-99q-20 6 -40 6q-36 0 -52.5 -15.5t-16.5 -48.5v-36h109v-88h-109v-418h-122v418h-74z" />
    <glyph glyph-name="g" unicode="g" horiz-adv-x="574" 
d="M514 506v-495q0 -101 -67.5 -140t-195.5 -39q-57 0 -99.5 15.5t-64.5 40t-32 50t-10 51.5h128q7 -28 33.5 -45.5t70.5 -17.5q58 0 86.5 27t28.5 75v54q-52 -56 -144 -56q-96 0 -158 67t-62 179t62 179t158 67q91 0 142 -61h2v49h122zM396 272q-1 51 -29.5 92.5
t-90.5 41.5t-90.5 -41.5t-29.5 -92.5q1 -51 29.5 -92.5t90.5 -41.5t90.5 41.5t29.5 92.5z" />
    <glyph glyph-name="h" unicode="h" horiz-adv-x="574" 
d="M182 712v-256h2q48 62 145 62q35 0 65.5 -8.5t58.5 -27.5t44.5 -56.5t16.5 -90.5v-335h-122v300q0 52 -21.5 76t-68.5 24q-63 0 -91.5 -42t-28.5 -98v-260h-122v712h122z" />
    <glyph glyph-name="i" unicode="i" horiz-adv-x="242" 
d="M121 588q-25 0 -43.5 18t-18.5 44t18.5 44t43.5 18t43.5 -18t18.5 -44t-18.5 -44t-43.5 -18zM182 506v-506h-122v506h122z" />
    <glyph glyph-name="j" unicode="j" horiz-adv-x="242" 
d="M121 588q-25 0 -43.5 18t-18.5 44t18.5 44t43.5 18t43.5 -18t18.5 -44t-18.5 -44t-43.5 -18zM182 506v-561q0 -113 -169 -113h-16v112h5q58 0 58 42v520h122z" />
    <glyph glyph-name="k" unicode="k" horiz-adv-x="537" 
d="M182 712v-396l192 190h158l-196 -197l215 -309h-149l-151 227l-69 -68v-159h-122v712h122z" />
    <glyph glyph-name="l" unicode="l" horiz-adv-x="242" 
d="M182 712v-712h-122v712h122z" />
    <glyph glyph-name="m" unicode="m" horiz-adv-x="870" 
d="M182 506v-50q60 62 146 62q115 0 149 -76q57 76 156 76q84 0 130.5 -41t46.5 -121v-356h-122v307q0 45 -21 72t-62 27q-49 0 -79 -41t-30 -98v-267h-122v307q0 46 -21 72.5t-64 26.5q-48 0 -77.5 -41.5t-29.5 -97.5v-267h-122v506h122z" />
    <glyph glyph-name="n" unicode="n" 
d="M182 506v-50h2q51 62 138 62q174 0 174 -172v-346h-122v309q0 39 -20 65t-64 26q-47 0 -77.5 -33.5t-30.5 -99.5v-267h-122v506h122z" />
    <glyph glyph-name="o" unicode="o" horiz-adv-x="594" 
d="M297 518q121 0 195 -75t74 -190t-74 -190t-195 -75t-195 75t-74 190t74 190t195 75zM297 406q-69 0 -105 -44.5t-36 -108.5t36 -108.5t105 -44.5t105 44.5t36 108.5t-36 108.5t-105 44.5z" />
    <glyph glyph-name="p" unicode="p" horiz-adv-x="574" 
d="M182 506v-43h2q60 55 144 55q95 0 156.5 -77t61.5 -188t-62 -188t-158 -77q-90 0 -144 61v-211h-122v668h122zM298 100q63 0 91 44.5t29 108.5q-1 64 -29 108.5t-91 44.5t-91 -44.5t-29 -108.5q1 -64 29 -108.5t91 -44.5z" />
    <glyph glyph-name="q" unicode="q" horiz-adv-x="574" 
d="M392 -162v211h-2q-47 -61 -140 -61q-97 0 -159.5 76.5t-62.5 188.5q0 111 61.5 188t156.5 77q49 0 79 -12.5t65 -42.5h2v43h122v-668h-122zM276 100q63 0 91 44.5t29 108.5q-1 64 -29 108.5t-91 44.5t-91 -44.5t-29 -108.5q1 -64 29 -108.5t91 -44.5z" />
    <glyph glyph-name="r" unicode="r" horiz-adv-x="372" 
d="M182 506v-70h2q41 82 176 82v-124q-178 0 -178 -149v-245h-122v506h122z" />
    <glyph glyph-name="s" unicode="s" horiz-adv-x="500" 
d="M460 379h-107q-25 39 -94 39q-42 1 -67.5 -12.5t-25.5 -36.5q0 -20 23.5 -32.5t59 -17t77 -14t77 -22t59 -43t23.5 -75.5q0 -86 -65.5 -131.5t-159.5 -45.5q-104 0 -165 47t-61 104h113q35 -51 106 -51q41 0 69.5 18.5t28.5 40.5q0 23 -32 35.5t-78.5 20t-92.5 20
t-78 45.5t-32 86q0 82 62 123t162 41q152 0 198 -139z" />
    <glyph glyph-name="t" unicode="t" horiz-adv-x="315" 
d="M201 685v-179h109v-88h-109v-236q0 -44 11 -63t44 -19l54 6v-90q-40 -22 -97 -22q-134 0 -134 192v232h-74v88h74v179h122z" />
    <glyph glyph-name="u" unicode="u" horiz-adv-x="574" 
d="M392 0v50h-2q-48 -62 -145 -62q-35 0 -65.5 8.5t-58.5 27.5t-44.5 56.5t-16.5 90.5v335h122v-300q0 -52 21.5 -76t68.5 -24q63 0 91.5 37.5t28.5 90.5v272h122v-506h-122z" />
    <glyph glyph-name="v" unicode="v" horiz-adv-x="464" 
d="M130 506l101 -350h2l101 350h129l-167 -506h-128l-167 506h129z" />
    <glyph glyph-name="w" unicode="w" horiz-adv-x="742" 
d="M134 506l85 -344h2l95 344h110l95 -344h2l85 344h126l-146 -506h-120l-96 339h-2l-96 -339h-120l-146 506h126z" />
    <glyph glyph-name="x" unicode="x" horiz-adv-x="482" 
d="M18 506h142l81 -124l81 124h142l-152 -233l175 -273h-146l-100 160l-100 -160h-146l175 273z" />
    <glyph glyph-name="y" unicode="y" horiz-adv-x="463" 
d="M463 506l-166 -551q-21 -69 -56 -96t-102 -27q-35 0 -73 7v109q24 -4 48 -4q29 0 42.5 9t25.5 34l-182 519h131l109 -368h2l95 368h126z" />
    <glyph glyph-name="z" unicode="z" horiz-adv-x="481" 
d="M294 400h-240v106h401v-94l-265 -306h265v-106h-429v94z" />
    <glyph glyph-name="braceleft" unicode="{" horiz-adv-x="352" 
d="M325 642h-38q-50 0 -50 -54v-175q0 -31 -8 -53t-23 -33.5t-28.5 -17t-31.5 -8.5v-2q18 -3 31.5 -8.5t28.5 -17t23 -33.5t8 -53v-175q0 -54 50 -54h38v-70h-82q-70 0 -99 25.5t-29 90.5v170q0 91 -70 91v70q70 0 70 91v170q0 65 29 90.5t99 25.5h82v-70z" />
    <glyph glyph-name="bar" unicode="|" horiz-adv-x="222" 
d="M161 730v-748h-100v748h100z" />
    <glyph glyph-name="braceright" unicode="}" horiz-adv-x="352" 
d="M27 -42h38q50 0 50 54v175q0 31 8 53t23 33.5t28.5 17t31.5 8.5v2q-18 3 -31.5 8.5t-28.5 17t-23 33.5t-8 53v175q0 54 -50 54h-38v70h82q70 0 99 -25.5t29 -90.5v-170q0 -91 70 -91v-70q-70 0 -70 -91v-170q0 -65 -29 -90.5t-99 -25.5h-82v70z" />
    <glyph glyph-name="asciitilde" unicode="~" horiz-adv-x="600" 
d="M495 341l36 -86q-45 -86 -125 -86q-39 0 -111 32q-83 36 -106 36q-24 0 -42.5 -18.5t-41.5 -53.5l-36 86q45 86 125 86q39 0 111 -32q83 -36 106 -36q24 0 42.5 18.5t41.5 53.5z" />
    <glyph glyph-name="exclamdown" unicode="&#xa1;" horiz-adv-x="260" 
d="M130 563q30 0 51.5 -21t21.5 -51t-21.5 -51.5t-51.5 -21.5q-29 0 -50.5 21.5t-21.5 51.5t21.5 51t50.5 21zM63 -150l2 174q0 74 9.5 163t18.5 141l9 51h56q37 -188 37 -355l2 -174h-134z" />
    <glyph glyph-name="cent" unicode="&#xa2;" 
d="M251 -124v112q-100 16 -156 88.5t-56 176.5t56 177t156 88v112h82v-112q77 -8 128 -61t51 -132h-111q0 25 -20.5 45.5t-47.5 29.5v-293q70 27 70 91h114q0 -50 -18.5 -90.5t-47.5 -64.5t-59 -38t-59 -17v-112h-82zM251 109v288q-41 -16 -62.5 -55.5t-21.5 -88.5
t21.5 -88.5t62.5 -55.5z" />
    <glyph glyph-name="sterling" unicode="&#xa3;" 
d="M58 369h79q-61 76 -61 142q0 90 58 135.5t153 45.5q125 0 175.5 -63t50.5 -190h-133q5 23 5 42q0 99 -91 99q-37 0 -60.5 -20t-23.5 -57q0 -27 25 -75t29 -59h122v-94h-90q5 -55 5 -58q0 -41 -14 -77q4 -2 15.5 -8t19 -9.5t18 -7t18.5 -3.5q46 0 46 104h128v-5
q0 -38 -5.5 -72.5t-19 -71t-42 -58t-68.5 -21.5q-63 0 -155 63q-49 -57 -114 -57q-47 0 -75.5 27.5t-28.5 73.5q0 43 28 75t70 32q41 0 85 -21q0 58 -13 94h-136v94zM94 91q0 -27 31 -27q32 0 52 28q-30 28 -55 28t-28 -29z" />
    <glyph glyph-name="currency" unicode="&#xa4;" 
d="M23 137l57 57q-50 59 -50 146q0 95 50 146l-57 57l52 52l57 -56q57 49 146 49t146 -49l57 56l52 -52l-57 -57q50 -51 50 -146q0 -87 -50 -146l57 -57l-52 -52l-57 58q-54 -51 -146 -51t-146 51l-57 -58zM420 340q0 62 -39 105t-103 43t-103 -43t-39 -105q0 -63 39 -105.5
t103 -42.5t103 42.5t39 105.5z" />
    <glyph glyph-name="yen" unicode="&#xa5;" 
d="M61 145v82h156v59l-10 18h-146v82h102l-158 294h122l151 -288l151 288h122l-158 -294h102v-82h-146l-10 -18v-59h156v-82h-156v-145h-122v145h-156z" />
    <glyph glyph-name="brokenbar" unicode="&#xa6;" horiz-adv-x="222" 
d="M161 730v-293h-100v293h100zM161 275v-293h-100v293h100z" />
    <glyph glyph-name="section" unicode="&#xa7;" 
d="M472 683l-54 -97q-95 44 -150 44q-66 0 -66 -36q0 -18 15 -29t70 -41l152 -81q91 -48 91 -140q0 -97 -108 -157q30 -18 47 -49t17 -64q0 -80 -66.5 -121.5t-152.5 -41.5q-102 0 -207 61l60 91q73 -52 139 -52q37 0 65 12.5t28 34.5q0 16 -17.5 28.5t-67.5 37.5l-138 70
q-103 53 -103 152q0 112 113 159q-65 46 -65 115q0 74 56.5 112.5t131.5 38.5q100 0 210 -47zM163 321q0 -24 13 -38.5t45 -31.5l102 -52q75 23 75 84q0 24 -13 38t-45 31l-102 52q-75 -22 -75 -83z" />
    <glyph glyph-name="dieresis" unicode="&#xa8;" horiz-adv-x="241" 
d="M33 574q-25 0 -43.5 18t-18.5 44t18.5 44t43.5 18t43.5 -18t18.5 -44t-18.5 -44t-43.5 -18zM209 574q-25 0 -43.5 18t-18.5 44t18.5 44t43.5 18t43.5 -18t18.5 -44t-18.5 -44t-43.5 -18z" />
    <glyph glyph-name="copyright" unicode="&#xa9;" horiz-adv-x="800" 
d="M26 356q0 163 110 268.5t264 105.5t264 -105.5t110 -268.5t-110 -268.5t-264 -105.5t-264 105.5t-110 268.5zM120 356q0 -127 80 -212.5t200 -85.5q119 0 199.5 85.5t80.5 212.5t-80.5 212.5t-199.5 85.5q-120 0 -200 -85.5t-80 -212.5zM514 290h88q-12 -73 -65.5 -116
t-125.5 -43q-95 0 -155 64t-60 161q0 99 58 162t157 63q73 0 126 -40.5t65 -114.5h-88q-7 38 -35 58.5t-68 20.5q-56 0 -88.5 -42.5t-32.5 -106.5q0 -59 34 -101t87 -42q93 0 103 77z" />
    <glyph glyph-name="ordfeminine" unicode="&#xaa;" horiz-adv-x="349" 
d="M325 592v-160q0 -28 12 -52h-93q-7 11 -7 29q-47 -35 -114 -35q-48 0 -79.5 26t-31.5 69q0 30 15.5 51t43 31.5t54 16t59 10.5t47.5 10v9q0 32 -63 32q-52 0 -52 -39l-88 3q0 50 40.5 74.5t102.5 24.5q35 0 59.5 -3.5t48 -13.5t35 -31t11.5 -52zM231 496v31
q-16 -7 -50.5 -13.5t-54.5 -15t-20 -25.5q0 -29 46 -29q31 0 55 13.5t24 38.5z" />
    <glyph glyph-name="guillemotleft" unicode="&#xab;" horiz-adv-x="426" 
d="M109 292l84 -70v-116l-144 113v146l144 113v-116zM293 292l84 -70v-116l-144 113v146l144 113v-116z" />
    <glyph glyph-name="logicalnot" unicode="&#xac;" horiz-adv-x="600" 
d="M553 408v-304h-100v204h-406v100h506z" />
    <glyph glyph-name="registered" unicode="&#xae;" horiz-adv-x="800" 
d="M26 356q0 163 110 268.5t264 105.5t264 -105.5t110 -268.5t-110 -268.5t-264 -105.5t-264 105.5t-110 268.5zM120 356q0 -127 80 -212.5t200 -85.5q119 0 199.5 85.5t80.5 212.5t-80.5 212.5t-199.5 85.5q-120 0 -200 -85.5t-80 -212.5zM253 568h163q78 0 117 -29.5
t39 -94.5q0 -55 -29.5 -85t-77.5 -35l110 -179h-88l-108 176h-44v-176h-82v423zM335 391h67q43 0 65.5 10.5t22.5 43.5q0 31 -23 42t-65 11h-67v-107z" />
    <glyph glyph-name="macron" unicode="&#xaf;" horiz-adv-x="241" 
d="M264 672v-70h-287v70h287z" />
    <glyph glyph-name="degree" unicode="&#xb0;" horiz-adv-x="400" 
d="M57 549q0 65 39.5 104t103.5 39t103.5 -39t39.5 -104t-39.5 -104t-103.5 -39t-103.5 39t-39.5 104zM127 549q0 -29 22.5 -51t50.5 -22t50.5 22t22.5 51t-22.5 51t-50.5 22t-50.5 -22t-22.5 -51z" />
    <glyph glyph-name="plusminus" unicode="&#xb1;" horiz-adv-x="600" 
d="M47 271v100h203v135h100v-135h203v-100h-203v-135h-100v135h-203zM553 100v-100h-506v100h506z" />
    <glyph glyph-name="twosuperior" unicode="&#xb2;" horiz-adv-x="361" 
d="M123 529l-100 5q0 74 39 116t121 42q67 0 106.5 -34t39.5 -92q0 -22 -5 -42.5t-18 -39t-22.5 -31t-31.5 -29.5t-30.5 -23.5t-33.5 -22.5t-28 -18v-2h175v-82h-288q-24 0 -24 18v38q0 15 10 20q30 18 58.5 38t60.5 48t51.5 58.5t19.5 57.5q0 56 -50 56q-30 0 -40 -20.5
t-10 -60.5z" />
    <glyph glyph-name="threesuperior" unicode="&#xb3;" horiz-adv-x="361" 
d="M149 529h30q55 0 55 39q0 42 -54 42q-28 0 -43 -16t-15 -39l-97 17q10 59 52.5 89.5t110.5 30.5q61 0 103.5 -28t42.5 -81q0 -67 -79 -86v-2q43 -8 66.5 -34.5t23.5 -65.5q0 -60 -47 -92.5t-120 -32.5t-117.5 33.5t-44.5 106.5h94q0 -26 17.5 -42t48.5 -16q63 0 63 54
q0 47 -62 47h-28v76z" />
    <glyph glyph-name="acute" unicode="&#xb4;" horiz-adv-x="241" 
d="M270 712l-142 -144h-83l91 144h134z" />
    <glyph glyph-name="paragraph" unicode="&#xb6;" horiz-adv-x="600" 
d="M236 -112v459q-99 0 -157.5 49.5t-58.5 129.5q0 186 236 186h271v-824h-88v748h-115v-748h-88z" />
    <glyph glyph-name="periodcentered" unicode="&#xb7;" horiz-adv-x="278" 
d="M139 383q31 0 53.5 -22.5t22.5 -53.5t-22.5 -53.5t-53.5 -22.5t-53.5 22.5t-22.5 53.5t22.5 53.5t53.5 22.5z" />
    <glyph glyph-name="cedilla" unicode="&#xb8;" horiz-adv-x="241" 
d="M40 -199l18 40q45 -15 65 -15q60 0 60 40q0 35 -49 35q-18 0 -35 -7l-22 19l66 87h48l-44 -57l2 -2q10 5 32 5q31 0 57.5 -20.5t26.5 -55.5q0 -47 -36.5 -71t-85.5 -24q-47 0 -103 26z" />
    <glyph glyph-name="onesuperior" unicode="&#xb9;" horiz-adv-x="361" 
d="M160 276v242q0 21 -7.5 28.5t-29.5 7.5h-68v64h13q54 0 76.5 17.5t32.5 50.5h77v-410h-94z" />
    <glyph glyph-name="ordmasculine" unicode="&#xba;" horiz-adv-x="373" 
d="M187 692q82 0 127.5 -44.5t45.5 -114.5t-45.5 -114.5t-127.5 -44.5t-128 44t-46 115q0 70 46 114.5t128 44.5zM187 616q-36 0 -58 -26t-22 -57q0 -32 22 -57.5t58 -25.5q35 0 57 25.5t22 57.5q0 31 -22 57t-57 26z" />
    <glyph glyph-name="guillemotright" unicode="&#xbb;" horiz-adv-x="426" 
d="M133 292l-84 70v116l144 -113v-146l-144 -113v116zM317 292l-84 70v116l144 -113v-146l-144 -113v116z" />
    <glyph glyph-name="onequarter" unicode="&#xbc;" horiz-adv-x="834" 
d="M645 718l-416 -756h-87l416 756h87zM145 276v242q0 21 -7.5 28.5t-29.5 7.5h-68v64h13q54 0 76.5 17.5t32.5 50.5h77v-410h-94zM456 84v66l193 260h93v-250h52v-76h-52v-84h-94v84h-192zM646 301l-102 -141h104v141h-2z" />
    <glyph glyph-name="onehalf" unicode="&#xbd;" horiz-adv-x="834" 
d="M635 718l-416 -756h-87l416 756h87zM145 276v242q0 21 -7.5 28.5t-29.5 7.5h-68v64h13q54 0 76.5 17.5t32.5 50.5h77v-410h-94zM582 253l-100 5q0 74 39 116t121 42q67 0 106.5 -34t39.5 -92q0 -22 -5 -42.5t-18 -39t-22.5 -31t-31.5 -29.5t-30.5 -23.5t-33.5 -22.5
t-28 -18v-2h175v-82h-288q-24 0 -24 18v38q0 15 10 20q30 18 58.5 38t60.5 48t51.5 58.5t19.5 57.5q0 56 -50 56q-30 0 -40 -20.5t-10 -60.5z" />
    <glyph glyph-name="threequarters" unicode="&#xbe;" horiz-adv-x="834" 
d="M703 718l-416 -756h-87l416 756h87zM173 529h30q55 0 55 39q0 42 -54 42q-28 0 -43 -16t-15 -39l-97 17q10 59 52.5 89.5t110.5 30.5q61 0 103.5 -28t42.5 -81q0 -67 -79 -86v-2q43 -8 66.5 -34.5t23.5 -65.5q0 -60 -47 -92.5t-120 -32.5t-117.5 33.5t-44.5 106.5h94
q0 -26 17.5 -42t48.5 -16q63 0 63 54q0 47 -62 47h-28v76zM456 84v66l193 260h93v-250h52v-76h-52v-84h-94v84h-192zM646 301l-102 -141h104v141h-2z" />
    <glyph glyph-name="questiondown" unicode="&#xbf;" horiz-adv-x="574" 
d="M287 417q-29 0 -50.5 21t-21.5 51t21.5 51.5t50.5 21.5q30 0 51.5 -21.5t21.5 -51.5t-21.5 -51t-51.5 -21zM343 379v-57q0 -64 -12.5 -98t-53.5 -60q-30 -20 -43.5 -29.5t-29 -33.5t-15.5 -52q0 -43 30 -71t77 -28q112 0 117 119h122q-4 -110 -71 -173.5t-177 -63.5
q-99 0 -168.5 58t-69.5 154q0 49 18.5 86.5t42 59t69.5 53.5q29 20 40.5 42.5t11.5 56.5v37h112z" />
    <glyph glyph-name="Agrave" unicode="&#xc0;" horiz-adv-x="630" 
d="M308 756l-142 144h134l91 -144h-83zM393 712l238 -712h-140l-41 138h-270l-41 -138h-140l238 712h156zM314 582l-98 -326h198l-98 326h-2z" />
    <glyph glyph-name="Aacute" unicode="&#xc1;" horiz-adv-x="630" 
d="M465 900l-142 -144h-83l91 144h134zM393 712l238 -712h-140l-41 138h-270l-41 -138h-140l238 712h156zM314 582l-98 -326h198l-98 326h-2z" />
    <glyph glyph-name="Acircumflex" unicode="&#xc2;" horiz-adv-x="630" 
d="M372 900l107 -144h-92l-71 87l-71 -87h-92l107 144h112zM393 712l238 -712h-140l-41 138h-270l-41 -138h-140l238 712h156zM314 582l-98 -326h198l-98 326h-2z" />
    <glyph glyph-name="Atilde" unicode="&#xc3;" horiz-adv-x="630" 
d="M213 761h-74q6 46 34 83t70 37q28 0 79 -21q7 -3 19 -8.5t20 -8t17 -2.5q15 0 26.5 15t13.5 29h74q-6 -46 -34 -83t-70 -37q-28 0 -79 21q-7 3 -19 8.5t-20 8t-17 2.5q-15 0 -27 -15t-13 -29zM393 712l238 -712h-140l-41 138h-270l-41 -138h-140l238 712h156zM314 582
l-98 -326h198l-98 326h-2z" />
    <glyph glyph-name="Adieresis" unicode="&#xc4;" horiz-adv-x="630" 
d="M228 762q-26 0 -44 18t-18 44t18 44t44 18t44 -18t18 -44t-18 -44t-44 -18zM404 762q-26 0 -44 18t-18 44t18 44t44 18t44 -18t18 -44t-18 -44t-44 -18zM393 712l238 -712h-140l-41 138h-270l-41 -138h-140l238 712h156zM314 582l-98 -326h198l-98 326h-2z" />
    <glyph glyph-name="Aring" unicode="&#xc5;" horiz-adv-x="630" 
d="M213 840q0 41 31 72t72 31q42 0 72.5 -31t30.5 -72q0 -42 -30.5 -72.5t-72.5 -30.5q-41 0 -72 30.5t-31 72.5zM355 840q0 16 -11 27.5t-27 11.5q-17 0 -28.5 -11t-11.5 -28q0 -16 11.5 -27.5t28.5 -11.5q16 0 27 11.5t11 27.5zM393 712l238 -712h-140l-41 138h-270
l-41 -138h-140l238 712h156zM314 582l-98 -326h198l-98 326h-2z" />
    <glyph glyph-name="AE" unicode="&#xc6;" horiz-adv-x="1000" 
d="M961 712v-124h-343v-162h296v-118h-296v-184h352v-124h-486v168h-244l-95 -168h-156l418 712h554zM482 600l-176 -314h178v314h-2z" />
    <glyph glyph-name="Ccedilla" unicode="&#xc7;" horiz-adv-x="685" 
d="M541 223h133q-10 -99 -90 -166.5t-184 -73.5l-31 -40l2 -2q10 5 32 5q31 0 57.5 -20.5t26.5 -55.5q0 -47 -36.5 -71t-85.5 -24q-47 0 -103 26l18 40q45 -15 65 -15q60 0 60 40q0 35 -49 35q-18 0 -35 -7l-22 19l53 70q-150 10 -231.5 115t-81.5 258q0 102 40 186t119 136
t182 52q111 0 191 -61t95 -169h-129q-8 46 -52.5 76t-104.5 30q-99 0 -150 -73.5t-51 -176.5t51 -176.5t150 -73.5q65 0 102 30.5t59 86.5z" />
    <glyph glyph-name="Egrave" unicode="&#xc8;" horiz-adv-x="581" 
d="M298 756l-142 144h134l91 -144h-83zM539 712v-124h-340v-162h340v-118h-340v-184h350v-124h-484v712h474z" />
    <glyph glyph-name="Eacute" unicode="&#xc9;" horiz-adv-x="581" 
d="M455 900l-142 -144h-83l91 144h134zM539 712v-124h-340v-162h340v-118h-340v-184h350v-124h-484v712h474z" />
    <glyph glyph-name="Ecircumflex" unicode="&#xca;" horiz-adv-x="581" 
d="M362 900l107 -144h-92l-71 87l-71 -87h-92l107 144h112zM539 712v-124h-340v-162h340v-118h-340v-184h350v-124h-484v712h474z" />
    <glyph glyph-name="Edieresis" unicode="&#xcb;" horiz-adv-x="581" 
d="M218 762q-26 0 -44 18t-18 44t18 44t44 18t44 -18t18 -44t-18 -44t-44 -18zM394 762q-26 0 -44 18t-18 44t18 44t44 18t44 -18t18 -44t-18 -44t-44 -18zM539 712v-124h-340v-162h340v-118h-340v-184h350v-124h-484v712h474z" />
    <glyph glyph-name="Igrave" unicode="&#xcc;" horiz-adv-x="278" 
d="M132 756l-142 144h134l91 -144h-83zM206 712v-712h-134v712h134z" />
    <glyph glyph-name="Iacute" unicode="&#xcd;" horiz-adv-x="278" 
d="M289 900l-142 -144h-83l91 144h134zM206 712v-712h-134v712h134z" />
    <glyph glyph-name="Icircumflex" unicode="&#xce;" horiz-adv-x="278" 
d="M196 900l107 -144h-92l-71 87l-71 -87h-92l107 144h112zM206 712v-712h-134v712h134z" />
    <glyph glyph-name="Idieresis" unicode="&#xcf;" horiz-adv-x="278" 
d="M52 762q-26 0 -44 18t-18 44t18 44t44 18t44 -18t18 -44t-18 -44t-44 -18zM228 762q-26 0 -44 18t-18 44t18 44t44 18t44 -18t18 -44t-18 -44t-44 -18zM206 712v-712h-134v712h134z" />
    <glyph glyph-name="Eth" unicode="&#xd0;" horiz-adv-x="684" 
d="M-3 326v94h68v292h255q153 0 239 -99.5t86 -256.5q0 -174 -83 -265t-242 -91h-255v326h-68zM379 420v-94h-180v-202h102q106 0 155 49t49 183q0 109 -50 170.5t-154 61.5h-102v-168h180z" />
    <glyph glyph-name="Ntilde" unicode="&#xd1;" horiz-adv-x="716" 
d="M251 761h-74q6 46 34 83t70 37q28 0 79 -21q7 -3 19 -8.5t20 -8t17 -2.5q15 0 26.5 15t13.5 29h74q-6 -46 -34 -83t-70 -37q-28 0 -79 21q-7 3 -19 8.5t-20 8t-17 2.5q-15 0 -27 -15t-13 -29zM203 712l319 -507h2v507h122v-712h-133l-319 507h-2v-507h-122v712h133z" />
    <glyph glyph-name="Ograve" unicode="&#xd2;" horiz-adv-x="780" 
d="M373 756l-142 144h134l91 -144h-83zM390 730q156 0 253.5 -109.5t97.5 -264.5t-97.5 -264.5t-253.5 -109.5t-253.5 109.5t-97.5 264.5t97.5 264.5t253.5 109.5zM390 606q-100 0 -155.5 -74.5t-55.5 -175.5t55.5 -175.5t155.5 -74.5t155.5 74.5t55.5 175.5t-55.5 175.5
t-155.5 74.5z" />
    <glyph glyph-name="Oacute" unicode="&#xd3;" horiz-adv-x="780" 
d="M530 900l-142 -144h-83l91 144h134zM390 730q156 0 253.5 -109.5t97.5 -264.5t-97.5 -264.5t-253.5 -109.5t-253.5 109.5t-97.5 264.5t97.5 264.5t253.5 109.5zM390 606q-100 0 -155.5 -74.5t-55.5 -175.5t55.5 -175.5t155.5 -74.5t155.5 74.5t55.5 175.5t-55.5 175.5
t-155.5 74.5z" />
    <glyph glyph-name="Ocircumflex" unicode="&#xd4;" horiz-adv-x="780" 
d="M437 900l107 -144h-92l-71 87l-71 -87h-92l107 144h112zM390 730q156 0 253.5 -109.5t97.5 -264.5t-97.5 -264.5t-253.5 -109.5t-253.5 109.5t-97.5 264.5t97.5 264.5t253.5 109.5zM390 606q-100 0 -155.5 -74.5t-55.5 -175.5t55.5 -175.5t155.5 -74.5t155.5 74.5
t55.5 175.5t-55.5 175.5t-155.5 74.5z" />
    <glyph glyph-name="Otilde" unicode="&#xd5;" horiz-adv-x="780" 
d="M278 761h-74q6 46 34 83t70 37q28 0 79 -21q7 -3 19 -8.5t20 -8t17 -2.5q15 0 26.5 15t13.5 29h74q-6 -46 -34 -83t-70 -37q-28 0 -79 21q-7 3 -19 8.5t-20 8t-17 2.5q-15 0 -27 -15t-13 -29zM390 730q156 0 253.5 -109.5t97.5 -264.5t-97.5 -264.5t-253.5 -109.5
t-253.5 109.5t-97.5 264.5t97.5 264.5t253.5 109.5zM390 606q-100 0 -155.5 -74.5t-55.5 -175.5t55.5 -175.5t155.5 -74.5t155.5 74.5t55.5 175.5t-55.5 175.5t-155.5 74.5z" />
    <glyph glyph-name="Odieresis" unicode="&#xd6;" horiz-adv-x="780" 
d="M293 762q-25 0 -43.5 18t-18.5 44t18.5 44t43.5 18t43.5 -18t18.5 -44t-18.5 -44t-43.5 -18zM469 762q-25 0 -43.5 18t-18.5 44t18.5 44t43.5 18t43.5 -18t18.5 -44t-18.5 -44t-43.5 -18zM390 730q156 0 253.5 -109.5t97.5 -264.5t-97.5 -264.5t-253.5 -109.5
t-253.5 109.5t-97.5 264.5t97.5 264.5t253.5 109.5zM390 606q-100 0 -155.5 -74.5t-55.5 -175.5t55.5 -175.5t155.5 -74.5t155.5 74.5t55.5 175.5t-55.5 175.5t-155.5 74.5z" />
    <glyph glyph-name="multiply" unicode="&#xd7;" horiz-adv-x="600" 
d="M134 17l-70 71l165 165l-165 166l70 70l166 -165l165 165l71 -70l-165 -166l165 -165l-71 -71l-165 166z" />
    <glyph glyph-name="Oslash" unicode="&#xd8;" horiz-adv-x="759" 
d="M742 617l-58 -51q57 -94 57 -210q0 -155 -97.5 -264.5t-253.5 -109.5q-149 0 -246 102l-63 -56l-64 67l72 64q-50 88 -50 197q0 155 97.5 264.5t253.5 109.5q141 0 236 -92l52 46zM179 356q0 -55 16 -102l334 297q-55 55 -139 55q-100 0 -155.5 -74.5t-55.5 -175.5z
M601 356q0 63 -22 116l-337 -301q58 -65 148 -65q100 0 155.5 74.5t55.5 175.5z" />
    <glyph glyph-name="Ugrave" unicode="&#xd9;" horiz-adv-x="704" 
d="M345 756l-142 144h134l91 -144h-83zM639 712v-493q0 -108 -78.5 -172.5t-208.5 -64.5t-208.5 64.5t-78.5 172.5v493h134v-458q0 -69 35 -105.5t118 -36.5t118 36.5t35 105.5v458h134z" />
    <glyph glyph-name="Uacute" unicode="&#xda;" horiz-adv-x="704" 
d="M502 900l-142 -144h-83l91 144h134zM639 712v-493q0 -108 -78.5 -172.5t-208.5 -64.5t-208.5 64.5t-78.5 172.5v493h134v-458q0 -69 35 -105.5t118 -36.5t118 36.5t35 105.5v458h134z" />
    <glyph glyph-name="Ucircumflex" unicode="&#xdb;" horiz-adv-x="704" 
d="M409 900l107 -144h-92l-71 87l-71 -87h-92l107 144h112zM639 712v-493q0 -108 -78.5 -172.5t-208.5 -64.5t-208.5 64.5t-78.5 172.5v493h134v-458q0 -69 35 -105.5t118 -36.5t118 36.5t35 105.5v458h134z" />
    <glyph glyph-name="Udieresis" unicode="&#xdc;" horiz-adv-x="704" 
d="M265 762q-25 0 -43.5 18t-18.5 44t18.5 44t43.5 18t43.5 -18t18.5 -44t-18.5 -44t-43.5 -18zM441 762q-25 0 -43.5 18t-18.5 44t18.5 44t43.5 18t43.5 -18t18.5 -44t-18.5 -44t-43.5 -18zM639 712v-493q0 -108 -78.5 -172.5t-208.5 -64.5t-208.5 64.5t-78.5 172.5v493
h134v-458q0 -69 35 -105.5t118 -36.5t118 36.5t35 105.5v458h134z" />
    <glyph glyph-name="Yacute" unicode="&#xdd;" horiz-adv-x="630" 
d="M465 900l-142 -144h-83l91 144h134zM11 712h149l155 -294l155 294h149l-237 -434v-278h-134v278z" />
    <glyph glyph-name="Thorn" unicode="&#xde;" horiz-adv-x="611" 
d="M199 712v-106h158q107 0 173.5 -64t66.5 -172t-66.5 -172t-173.5 -64h-158v-134h-134v712h134zM199 246h133q61 0 93 33.5t32 90.5q0 124 -125 124h-133v-248z" />
    <glyph glyph-name="germandbls" unicode="&#xdf;" 
d="M60 0v513q0 109 57 160t157 51q92 0 160 -47.5t68 -133.5q0 -45 -24 -78.5t-67 -46.5v-2q117 -40 117 -197q0 -105 -55 -165t-158 -60q-47 0 -89 12v119q24 -19 65 -19q52 0 80.5 33t28.5 84q0 69 -34 104t-108 35h-28v97q16 -3 36 -3q40 0 68 21t28 62q0 38 -24 58.5
t-62 20.5q-40 0 -67 -25.5t-27 -78.5v-514h-122z" />
    <glyph glyph-name="agrave" unicode="&#xe0;" horiz-adv-x="527" 
d="M261 568l-142 144h134l91 -144h-83zM483 85v-85h-120q-2 33 -2 46q-72 -58 -165 -58q-74 0 -123 43.5t-49 115.5q0 68 44.5 106.5t109.5 51.5l51 10q112 23 132 30v15q0 64 -96 64q-54 0 -77 -17.5t-23 -58.5h-116q0 84 62.5 127t153.5 43q46 0 81 -6t68 -22.5t51 -51
t18 -86.5v-267zM361 246l-58 -11l-67 -14q-41 -8 -62.5 -22.5t-21.5 -47.5q0 -28 22.5 -45.5t56.5 -17.5q49 0 89.5 24t40.5 69v65z" />
    <glyph glyph-name="aacute" unicode="&#xe1;" horiz-adv-x="527" 
d="M418 712l-142 -144h-83l91 144h134zM483 85v-85h-120q-2 33 -2 46q-72 -58 -165 -58q-74 0 -123 43.5t-49 115.5q0 68 44.5 106.5t109.5 51.5l51 10q112 23 132 30v15q0 64 -96 64q-54 0 -77 -17.5t-23 -58.5h-116q0 84 62.5 127t153.5 43q46 0 81 -6t68 -22.5t51 -51
t18 -86.5v-267zM361 246l-58 -11l-67 -14q-41 -8 -62.5 -22.5t-21.5 -47.5q0 -28 22.5 -45.5t56.5 -17.5q49 0 89.5 24t40.5 69v65z" />
    <glyph glyph-name="acircumflex" unicode="&#xe2;" horiz-adv-x="527" 
d="M325 712l107 -144h-92l-71 87l-71 -87h-92l107 144h112zM483 85v-85h-120q-2 33 -2 46q-72 -58 -165 -58q-74 0 -123 43.5t-49 115.5q0 68 44.5 106.5t109.5 51.5l51 10q112 23 132 30v15q0 64 -96 64q-54 0 -77 -17.5t-23 -58.5h-116q0 84 62.5 127t153.5 43q46 0 81 -6
t68 -22.5t51 -51t18 -86.5v-267zM361 246l-58 -11l-67 -14q-41 -8 -62.5 -22.5t-21.5 -47.5q0 -28 22.5 -45.5t56.5 -17.5q49 0 89.5 24t40.5 69v65z" />
    <glyph glyph-name="atilde" unicode="&#xe3;" horiz-adv-x="527" 
d="M166 573h-74q6 46 34 83t70 37q28 0 79 -21q7 -3 19 -8.5t20 -8t17 -2.5q15 0 26.5 15t13.5 29h74q-6 -46 -34 -83t-70 -37q-28 0 -79 21q-7 3 -19 8.5t-20 8t-17 2.5q-15 0 -27 -15t-13 -29zM483 85v-85h-120q-2 33 -2 46q-72 -58 -165 -58q-74 0 -123 43.5t-49 115.5
q0 68 44.5 106.5t109.5 51.5l51 10q112 23 132 30v15q0 64 -96 64q-54 0 -77 -17.5t-23 -58.5h-116q0 84 62.5 127t153.5 43q46 0 81 -6t68 -22.5t51 -51t18 -86.5v-267zM361 246l-58 -11l-67 -14q-41 -8 -62.5 -22.5t-21.5 -47.5q0 -28 22.5 -45.5t56.5 -17.5q49 0 89.5 24
t40.5 69v65z" />
    <glyph glyph-name="adieresis" unicode="&#xe4;" horiz-adv-x="527" 
d="M181 574q-25 0 -43.5 18t-18.5 44t18.5 44t43.5 18t43.5 -18t18.5 -44t-18.5 -44t-43.5 -18zM357 574q-25 0 -43.5 18t-18.5 44t18.5 44t43.5 18t43.5 -18t18.5 -44t-18.5 -44t-43.5 -18zM483 85v-85h-120q-2 33 -2 46q-72 -58 -165 -58q-74 0 -123 43.5t-49 115.5
q0 68 44.5 106.5t109.5 51.5l51 10q112 23 132 30v15q0 64 -96 64q-54 0 -77 -17.5t-23 -58.5h-116q0 84 62.5 127t153.5 43q46 0 81 -6t68 -22.5t51 -51t18 -86.5v-267zM361 246l-58 -11l-67 -14q-41 -8 -62.5 -22.5t-21.5 -47.5q0 -28 22.5 -45.5t56.5 -17.5q49 0 89.5 24
t40.5 69v65z" />
    <glyph glyph-name="aring" unicode="&#xe5;" horiz-adv-x="527" 
d="M166 634q0 41 31 72t72 31q42 0 72.5 -31t30.5 -72q0 -42 -30.5 -72.5t-72.5 -30.5q-41 0 -72 30.5t-31 72.5zM308 634q0 16 -11 27.5t-27 11.5q-17 0 -28.5 -11t-11.5 -28q0 -16 11.5 -27.5t28.5 -11.5q16 0 27 11.5t11 27.5zM483 85v-85h-120q-2 33 -2 46
q-72 -58 -165 -58q-74 0 -123 43.5t-49 115.5q0 68 44.5 106.5t109.5 51.5l51 10q112 23 132 30v15q0 64 -96 64q-54 0 -77 -17.5t-23 -58.5h-116q0 84 62.5 127t153.5 43q46 0 81 -6t68 -22.5t51 -51t18 -86.5v-267zM361 246l-58 -11l-67 -14q-41 -8 -62.5 -22.5
t-21.5 -47.5q0 -28 22.5 -45.5t56.5 -17.5q49 0 89.5 24t40.5 69v65z" />
    <glyph glyph-name="ae" unicode="&#xe6;" horiz-adv-x="870" 
d="M844 224h-364q1 -54 38 -89t83 -35q73 0 133 68l92 -60q-39 -53 -105 -86.5t-131 -33.5q-97 0 -183 78q-87 -78 -214 -78q-74 0 -123.5 43.5t-49.5 115.5q0 128 171 161l34 7q113 23 133 30v15q0 24 -26.5 44t-67.5 20q-86 0 -97 -76h-116q4 88 62 129t148 41
q113 0 170 -66q23 26 66.5 46t103.5 20q123 0 183 -77t60 -217zM480 318h236q0 29 -30.5 64.5t-84.5 35.5q-59 0 -87 -31t-34 -69zM358 220v27q-25 -12 -59 -18l-67 -14q-41 -8 -62.5 -22.5t-21.5 -47.5q0 -28 22.5 -45.5t56.5 -17.5q24 0 45 6.5t41.5 21t32.5 43t12 67.5z
" />
    <glyph glyph-name="ccedilla" unicode="&#xe7;" horiz-adv-x="519" 
d="M391 175h116q-9 -69 -57.5 -120t-126.5 -64l-37 -48l2 -2q10 5 32 5q31 0 57.5 -20.5t26.5 -55.5q0 -47 -36.5 -71t-85.5 -24q-47 0 -103 26l18 40q45 -15 65 -15q60 0 60 40q0 35 -49 35q-17 0 -35 -7l-22 19l57 75q-112 2 -178.5 76.5t-66.5 188.5q0 116 69.5 190.5
t189.5 74.5q88 0 144 -47t70 -120h-114q-22 55 -100 55q-62 0 -96.5 -45t-34.5 -108q0 -64 32 -108.5t92 -44.5q50 0 72 18.5t39 56.5z" />
    <glyph glyph-name="egrave" unicode="&#xe8;" 
d="M271 568l-142 144h134l91 -144h-83zM530 224h-374q1 -54 40 -89t91 -35q82 -4 114 42h121q-57 -154 -235 -154q-120 0 -189.5 74.5t-69.5 190.5t69.5 190.5t189.5 74.5q243 0 243 -294zM156 318h246q0 29 -30.5 64.5t-84.5 35.5q-51 0 -86 -28.5t-45 -71.5z" />
    <glyph glyph-name="eacute" unicode="&#xe9;" 
d="M428 712l-142 -144h-83l91 144h134zM530 224h-374q1 -54 40 -89t91 -35q82 -4 114 42h121q-57 -154 -235 -154q-120 0 -189.5 74.5t-69.5 190.5t69.5 190.5t189.5 74.5q243 0 243 -294zM156 318h246q0 29 -30.5 64.5t-84.5 35.5q-51 0 -86 -28.5t-45 -71.5z" />
    <glyph glyph-name="ecircumflex" unicode="&#xea;" 
d="M335 712l107 -144h-92l-71 87l-71 -87h-92l107 144h112zM530 224h-374q1 -54 40 -89t91 -35q82 -4 114 42h121q-57 -154 -235 -154q-120 0 -189.5 74.5t-69.5 190.5t69.5 190.5t189.5 74.5q243 0 243 -294zM156 318h246q0 29 -30.5 64.5t-84.5 35.5q-51 0 -86 -28.5
t-45 -71.5z" />
    <glyph glyph-name="edieresis" unicode="&#xeb;" 
d="M191 574q-25 0 -43.5 18t-18.5 44t18.5 44t43.5 18t43.5 -18t18.5 -44t-18.5 -44t-43.5 -18zM367 574q-25 0 -43.5 18t-18.5 44t18.5 44t43.5 18t43.5 -18t18.5 -44t-18.5 -44t-43.5 -18zM530 224h-374q1 -54 40 -89t91 -35q82 -4 114 42h121q-57 -154 -235 -154
q-120 0 -189.5 74.5t-69.5 190.5t69.5 190.5t189.5 74.5q243 0 243 -294zM156 318h246q0 29 -30.5 64.5t-84.5 35.5q-51 0 -86 -28.5t-45 -71.5z" />
    <glyph glyph-name="igrave" unicode="&#xec;" horiz-adv-x="242" 
d="M114 568l-142 144h134l91 -144h-83zM182 506v-506h-122v506h122z" />
    <glyph glyph-name="iacute" unicode="&#xed;" horiz-adv-x="242" 
d="M271 712l-142 -144h-83l91 144h134zM182 506v-506h-122v506h122z" />
    <glyph glyph-name="icircumflex" unicode="&#xee;" horiz-adv-x="242" 
d="M178 712l107 -144h-92l-71 87l-71 -87h-92l107 144h112zM182 506v-506h-122v506h122z" />
    <glyph glyph-name="idieresis" unicode="&#xef;" horiz-adv-x="242" 
d="M34 574q-26 0 -44 18t-18 44t18 44t44 18t44 -18t18 -44t-18 -44t-44 -18zM210 574q-26 0 -44 18t-18 44t18 44t44 18t44 -18t18 -44t-18 -44t-44 -18zM182 506v-506h-122v506h122z" />
    <glyph glyph-name="eth" unicode="&#xf0;" horiz-adv-x="574" 
d="M96 589l88 47q-33 28 -72 45l98 65q49 -26 82 -53l95 50l49 -39l-94 -50q102 -80 153 -169t51 -213q0 -129 -69 -206.5t-190 -77.5q-120 0 -189.5 74.5t-69.5 190.5t69.5 190.5t189.5 74.5q30 0 54 -13h2q-8 11 -44 43t-63 50l-91 -48zM287 406q-62 0 -96.5 -45
t-34.5 -108t34.5 -108t96.5 -45t96.5 45t34.5 108t-34.5 108t-96.5 45z" />
    <glyph glyph-name="ntilde" unicode="&#xf1;" 
d="M176 573h-74q6 46 34 83t70 37q28 0 79 -21q7 -3 19 -8.5t20 -8t17 -2.5q15 0 26.5 15t13.5 29h74q-6 -46 -34 -83t-70 -37q-28 0 -79 21q-7 3 -19 8.5t-20 8t-17 2.5q-15 0 -27 -15t-13 -29zM182 506v-50h2q51 62 138 62q174 0 174 -172v-346h-122v309q0 39 -20 65
t-64 26q-47 0 -77.5 -33.5t-30.5 -99.5v-267h-122v506h122z" />
    <glyph glyph-name="ograve" unicode="&#xf2;" horiz-adv-x="594" 
d="M280 568l-142 144h134l91 -144h-83zM297 518q121 0 195 -75t74 -190t-74 -190t-195 -75t-195 75t-74 190t74 190t195 75zM297 406q-69 0 -105 -44.5t-36 -108.5t36 -108.5t105 -44.5t105 44.5t36 108.5t-36 108.5t-105 44.5z" />
    <glyph glyph-name="oacute" unicode="&#xf3;" horiz-adv-x="594" 
d="M437 712l-142 -144h-83l91 144h134zM297 518q121 0 195 -75t74 -190t-74 -190t-195 -75t-195 75t-74 190t74 190t195 75zM297 406q-69 0 -105 -44.5t-36 -108.5t36 -108.5t105 -44.5t105 44.5t36 108.5t-36 108.5t-105 44.5z" />
    <glyph glyph-name="ocircumflex" unicode="&#xf4;" horiz-adv-x="594" 
d="M344 712l107 -144h-92l-71 87l-71 -87h-92l107 144h112zM297 518q121 0 195 -75t74 -190t-74 -190t-195 -75t-195 75t-74 190t74 190t195 75zM297 406q-69 0 -105 -44.5t-36 -108.5t36 -108.5t105 -44.5t105 44.5t36 108.5t-36 108.5t-105 44.5z" />
    <glyph glyph-name="otilde" unicode="&#xf5;" horiz-adv-x="594" 
d="M185 573h-74q6 46 34 83t70 37q28 0 79 -21q7 -3 19 -8.5t20 -8t17 -2.5q15 0 26.5 15t13.5 29h74q-6 -46 -34 -83t-70 -37q-28 0 -79 21q-7 3 -19 8.5t-20 8t-17 2.5q-15 0 -27 -15t-13 -29zM297 518q121 0 195 -75t74 -190t-74 -190t-195 -75t-195 75t-74 190t74 190
t195 75zM297 406q-69 0 -105 -44.5t-36 -108.5t36 -108.5t105 -44.5t105 44.5t36 108.5t-36 108.5t-105 44.5z" />
    <glyph glyph-name="odieresis" unicode="&#xf6;" horiz-adv-x="594" 
d="M200 574q-26 0 -44 18t-18 44t18 44t44 18t44 -18t18 -44t-18 -44t-44 -18zM376 574q-26 0 -44 18t-18 44t18 44t44 18t44 -18t18 -44t-18 -44t-44 -18zM297 518q121 0 195 -75t74 -190t-74 -190t-195 -75t-195 75t-74 190t74 190t195 75zM297 406q-69 0 -105 -44.5
t-36 -108.5t36 -108.5t105 -44.5t105 44.5t36 108.5t-36 108.5t-105 44.5z" />
    <glyph glyph-name="divide" unicode="&#xf7;" horiz-adv-x="600" 
d="M300 532q31 0 53.5 -22.5t22.5 -53.5t-22.5 -53.5t-53.5 -22.5t-53.5 22.5t-22.5 53.5t22.5 53.5t53.5 22.5zM553 303v-100h-506v100h506zM300 126q31 0 53.5 -22.5t22.5 -53.5t-22.5 -53.5t-53.5 -22.5t-53.5 22.5t-22.5 53.5t22.5 53.5t53.5 22.5z" />
    <glyph glyph-name="oslash" unicode="&#xf8;" horiz-adv-x="574" 
d="M6 77l53 43q-41 72 -41 133q0 115 74 190t195 75q117 0 185 -71l51 41l45 -58l-53 -42q41 -76 41 -135q0 -115 -74 -190t-195 -75q-117 0 -186 72l-50 -41zM156 200l219 170q-34 36 -88 36q-69 0 -105 -44.5t-36 -108.5q0 -30 10 -53zM416 308l-218 -171q34 -37 89 -37
q69 0 105 44.5t36 108.5q0 29 -12 55z" />
    <glyph glyph-name="ugrave" unicode="&#xf9;" horiz-adv-x="574" 
d="M280 568l-142 144h134l91 -144h-83zM392 0v50h-2q-48 -62 -145 -62q-35 0 -65.5 8.5t-58.5 27.5t-44.5 56.5t-16.5 90.5v335h122v-300q0 -52 21.5 -76t68.5 -24q63 0 91.5 37.5t28.5 90.5v272h122v-506h-122z" />
    <glyph glyph-name="uacute" unicode="&#xfa;" horiz-adv-x="574" 
d="M437 712l-142 -144h-83l91 144h134zM392 0v50h-2q-48 -62 -145 -62q-35 0 -65.5 8.5t-58.5 27.5t-44.5 56.5t-16.5 90.5v335h122v-300q0 -52 21.5 -76t68.5 -24q63 0 91.5 37.5t28.5 90.5v272h122v-506h-122z" />
    <glyph glyph-name="ucircumflex" unicode="&#xfb;" horiz-adv-x="574" 
d="M344 712l107 -144h-92l-71 87l-71 -87h-92l107 144h112zM392 0v50h-2q-48 -62 -145 -62q-35 0 -65.5 8.5t-58.5 27.5t-44.5 56.5t-16.5 90.5v335h122v-300q0 -52 21.5 -76t68.5 -24q63 0 91.5 37.5t28.5 90.5v272h122v-506h-122z" />
    <glyph glyph-name="udieresis" unicode="&#xfc;" horiz-adv-x="574" 
d="M200 574q-26 0 -44 18t-18 44t18 44t44 18t44 -18t18 -44t-18 -44t-44 -18zM376 574q-26 0 -44 18t-18 44t18 44t44 18t44 -18t18 -44t-18 -44t-44 -18zM392 0v50h-2q-48 -62 -145 -62q-35 0 -65.5 8.5t-58.5 27.5t-44.5 56.5t-16.5 90.5v335h122v-300q0 -52 21.5 -76
t68.5 -24q63 0 91.5 37.5t28.5 90.5v272h122v-506h-122z" />
    <glyph glyph-name="yacute" unicode="&#xfd;" horiz-adv-x="463" 
d="M381 712l-142 -144h-83l91 144h134zM463 506l-166 -551q-21 -69 -56 -96t-102 -27q-35 0 -73 7v109q24 -4 48 -4q29 0 42.5 9t25.5 34l-182 519h131l109 -368h2l95 368h126z" />
    <glyph glyph-name="thorn" unicode="&#xfe;" horiz-adv-x="574" 
d="M182 712v-249h2q60 55 144 55q95 0 156.5 -77t61.5 -188q0 -112 -62.5 -188.5t-159.5 -76.5q-93 0 -140 61h-2v-211h-122v874h122zM298 100q63 0 91 44.5t29 108.5q-1 64 -29 108.5t-91 44.5t-91 -44.5t-29 -108.5q1 -64 29 -108.5t91 -44.5z" />
    <glyph glyph-name="ydieresis" unicode="&#xff;" horiz-adv-x="463" 
d="M144 574q-26 0 -44 18t-18 44t18 44t44 18t44 -18t18 -44t-18 -44t-44 -18zM320 574q-26 0 -44 18t-18 44t18 44t44 18t44 -18t18 -44t-18 -44t-44 -18zM463 506l-166 -551q-21 -69 -56 -96t-102 -27q-35 0 -73 7v109q24 -4 48 -4q29 0 42.5 9t25.5 34l-182 519h131
l109 -368h2l95 368h126z" />
    <glyph glyph-name="dotlessi" unicode="&#x131;" horiz-adv-x="242" 
d="M182 506v-506h-122v506h122z" />
    <glyph glyph-name="Lslash" unicode="&#x141;" horiz-adv-x="500" 
d="M3 231v101l62 38v342h134v-261l156 96v-101l-156 -95v-227h289v-124h-423v270z" />
    <glyph glyph-name="lslash" unicode="&#x142;" horiz-adv-x="242" 
d="M3 279v85l57 40v308h122v-224l57 40v-85l-57 -39v-404h-122v319z" />
    <glyph glyph-name="OE" unicode="&#x152;" horiz-adv-x="1000" 
d="M496 0v28q-58 -46 -143 -46q-102 0 -177 55.5t-110 138.5t-35 180q0 95 38.5 179.5t113.5 139.5t170 55q81 0 143 -41v23h468v-124h-334v-162h297v-118h-297v-184h354v-124h-488zM171 356q0 -103 51 -176.5t150 -73.5q124 0 124 76v331q0 35 -37 64t-87 29
q-99 0 -150 -73.5t-51 -176.5z" />
    <glyph glyph-name="oe" unicode="&#x153;" horiz-adv-x="907" 
d="M28 253q0 116 68.5 190.5t184.5 74.5q110 0 176 -72q72 72 183 72q116 0 174.5 -77.5t58.5 -216.5h-345q1 -55 33 -89.5t79 -34.5q81 0 123 69l103 -60q-40 -52 -99.5 -86t-126.5 -35q-52 -1 -100 22t-78 68q-54 -90 -181 -90q-116 0 -184.5 74.5t-68.5 190.5zM528 318
h217q-3 41 -31.5 70.5t-73.5 29.5q-47 0 -78.5 -29.5t-33.5 -70.5zM281 406q-58 0 -91.5 -45t-33.5 -108t33.5 -108t91.5 -45t91.5 45t33.5 108t-33.5 108t-91.5 45z" />
    <glyph glyph-name="Scaron" unicode="&#x160;" horiz-adv-x="648" 
d="M269 756l-107 144h92l71 -87l71 87h92l-107 -144h-112zM34 197h140q18 -39 56.5 -65t98.5 -26q59 0 105 22t46 69q0 39 -33 57t-114 37l-79 18q-48 11 -82.5 24t-66.5 35.5t-48.5 57.5t-16.5 82q0 105 83 163.5t193 58.5q99 0 190.5 -55.5t91.5 -132.5h-141
q-21 64 -142 64q-59 0 -97 -21t-38 -58q0 -17 8.5 -30.5t19 -21.5t34.5 -16.5t38 -12t47 -10.5l87 -19q45 -10 78 -23t64 -35t47.5 -58t16.5 -85q0 -62 -27.5 -109.5t-73.5 -73.5t-99 -38.5t-112 -12.5q-61 0 -123 26t-106.5 77t-44.5 112z" />
    <glyph glyph-name="scaron" unicode="&#x161;" horiz-adv-x="500" 
d="M195 568l-107 144h92l71 -87l71 87h92l-107 -144h-112zM460 379h-107q-25 39 -94 39q-42 1 -67.5 -12.5t-25.5 -36.5q0 -20 23.5 -32.5t59 -17t77 -14t77 -22t59 -43t23.5 -75.5q0 -86 -65.5 -131.5t-159.5 -45.5q-104 0 -165 47t-61 104h113q35 -51 106 -51
q41 0 69.5 18.5t28.5 40.5q0 23 -32 35.5t-78.5 20t-92.5 20t-78 45.5t-32 86q0 82 62 123t162 41q152 0 198 -139z" />
    <glyph glyph-name="Ydieresis" unicode="&#x178;" horiz-adv-x="630" 
d="M228 762q-26 0 -44 18t-18 44t18 44t44 18t44 -18t18 -44t-18 -44t-44 -18zM404 762q-26 0 -44 18t-18 44t18 44t44 18t44 -18t18 -44t-18 -44t-44 -18zM11 712h149l155 -294l155 294h149l-237 -434v-278h-134v278z" />
    <glyph glyph-name="Zcaron" unicode="&#x17d;" horiz-adv-x="593" 
d="M241 756l-107 144h92l71 -87l71 87h92l-107 -144h-112zM403 594h-351v118h522v-118l-383 -476h383v-118h-555v118z" />
    <glyph glyph-name="zcaron" unicode="&#x17e;" horiz-adv-x="481" 
d="M185 568l-107 144h92l71 -87l71 87h92l-107 -144h-112zM294 400h-240v106h401v-94l-265 -306h265v-106h-429v94z" />
    <glyph glyph-name="florin" unicode="&#x192;" 
d="M52 -159l14 102q20 -5 40 -5q60 0 67 63l38 339h-92l9 94h94l11 102q9 80 41.5 118t109.5 38q42 0 84 -8l-15 -98q-19 6 -39 6q-58 0 -66 -84l-9 -74h99l-8 -94h-101l-37 -335q-10 -96 -45.5 -134.5t-131.5 -38.5q-39 0 -63 9z" />
    <glyph glyph-name="circumflex" unicode="&#x2c6;" horiz-adv-x="241" 
d="M177 712l107 -144h-92l-71 87l-71 -87h-92l107 144h112z" />
    <glyph glyph-name="caron" unicode="&#x2c7;" horiz-adv-x="241" 
d="M65 568l-107 144h92l71 -87l71 87h92l-107 -144h-112z" />
    <glyph glyph-name="breve" unicode="&#x2d8;" horiz-adv-x="241" 
d="M-40 712h57q15 -71 104 -71t104 71h57q-12 -141 -161 -141t-161 141z" />
    <glyph glyph-name="dotaccent" unicode="&#x2d9;" horiz-adv-x="241" 
d="M121 574q-25 0 -43.5 18t-18.5 44t18.5 44t43.5 18t43.5 -18t18.5 -44t-18.5 -44t-43.5 -18z" />
    <glyph glyph-name="ring" unicode="&#x2da;" horiz-adv-x="241" 
d="M18 634q0 41 31 72t72 31q42 0 72.5 -31t30.5 -72q0 -42 -30.5 -72.5t-72.5 -30.5q-41 0 -72 30.5t-31 72.5zM160 634q0 16 -11 27.5t-27 11.5q-17 0 -28.5 -11t-11.5 -28q0 -16 11.5 -27.5t28.5 -11.5q16 0 27 11.5t11 27.5z" />
    <glyph glyph-name="ogonek" unicode="&#x2db;" horiz-adv-x="241" 
d="M202 -142l30 -8q-49 -75 -134 -75q-81 0 -81 79q0 43 34 83t87 63h53q-92 -79 -92 -131q0 -21 14 -32t34 -11q34 0 55 32z" />
    <glyph glyph-name="tilde" unicode="&#x2dc;" horiz-adv-x="241" 
d="M18 573h-74q6 46 34 83t70 37q28 0 79 -21q7 -3 19 -8.5t20 -8t17 -2.5q15 0 26.5 15t13.5 29h74q-6 -46 -34 -83t-70 -37q-28 0 -79 21q-7 3 -19 8.5t-20 8t-17 2.5q-15 0 -27 -15t-13 -29z" />
    <glyph glyph-name="hungarumlaut" unicode="&#x2dd;" horiz-adv-x="241" 
d="M171 712l-142 -144h-83l91 144h134zM371 712l-142 -144h-83l91 144h134z" />
    <glyph glyph-name="mu" unicode="&#x3bc;" horiz-adv-x="574" 
d="M392 0v50h-2q-48 -62 -145 -62q-43 0 -65 18v-168h-120v668h122v-300q0 -52 21.5 -76t68.5 -24q63 0 91.5 37.5t28.5 90.5v272h122v-506h-122z" />
    <glyph glyph-name="endash" unicode="&#x2013;" horiz-adv-x="500" 
d="M500 348v-112h-500v112h500z" />
    <glyph glyph-name="emdash" unicode="&#x2014;" horiz-adv-x="1000" 
d="M1000 348v-112h-1000v112h1000z" />
    <glyph glyph-name="quoteleft" unicode="&#x2018;" horiz-adv-x="278" 
d="M67 559v10q0 125 132 143v-61q-51 -5 -51 -47q27 -3 45.5 -23.5t18.5 -48.5q0 -30 -21.5 -51.5t-50.5 -21.5q-32 0 -52.5 26t-20.5 74z" />
    <glyph glyph-name="quoteright" unicode="&#x2019;" horiz-adv-x="278" 
d="M211 612v-10q0 -125 -132 -143v61q51 5 51 47q-27 3 -45.5 23.5t-18.5 48.5q0 30 21.5 51.5t50.5 21.5q32 0 52.5 -26t20.5 -74z" />
    <glyph glyph-name="quotesinglbase" unicode="&#x201a;" horiz-adv-x="278" 
d="M211 44v-10q0 -125 -132 -143v61q51 5 51 47q-27 3 -45.5 24t-18.5 48q0 30 21.5 51.5t50.5 21.5q32 0 52.5 -26t20.5 -74z" />
    <glyph glyph-name="quotedblleft" unicode="&#x201c;" horiz-adv-x="389" 
d="M34 559v10q0 125 132 143v-61q-51 -5 -51 -47q27 -3 45.5 -23.5t18.5 -48.5q0 -30 -21.5 -51.5t-50.5 -21.5q-32 0 -52.5 26t-20.5 74zM208 559v10q0 125 132 143v-61q-51 -5 -51 -47q27 -3 45.5 -23.5t18.5 -48.5q0 -30 -21.5 -51.5t-50.5 -21.5q-32 0 -52.5 26
t-20.5 74z" />
    <glyph glyph-name="quotedblright" unicode="&#x201d;" horiz-adv-x="389" 
d="M179 612v-10q0 -125 -132 -143v61q51 5 51 47q-27 3 -45.5 23.5t-18.5 48.5q0 30 21.5 51.5t50.5 21.5q32 0 52.5 -26t20.5 -74zM353 612v-10q0 -125 -132 -143v61q51 5 51 47q-27 3 -45.5 23.5t-18.5 48.5q0 30 21.5 51.5t50.5 21.5q32 0 52.5 -26t20.5 -74z" />
    <glyph glyph-name="quotedblbase" unicode="&#x201e;" horiz-adv-x="389" 
d="M179 13v-10q0 -125 -132 -143v61q51 5 51 47q-27 3 -45.5 23.5t-18.5 48.5q0 30 21.5 51.5t50.5 21.5q32 0 52.5 -26t20.5 -74zM353 13v-10q0 -125 -132 -143v61q51 5 51 47q-27 3 -45.5 23.5t-18.5 48.5q0 30 21.5 51.5t50.5 21.5q32 0 52.5 -26t20.5 -74z" />
    <glyph glyph-name="dagger" unicode="&#x2020;" 
d="M214 486v226h128v-226h171v-112h-171v-486h-128v486h-171v112h171z" />
    <glyph glyph-name="daggerdbl" unicode="&#x2021;" 
d="M43 88v106h174v218h-174v106h174v194h122v-194h174v-106h-174v-218h174v-106h-174v-200h-122v200h-174z" />
    <glyph glyph-name="bullet" unicode="&#x2022;" horiz-adv-x="500" 
d="M250 534q73 0 125.5 -52.5t52.5 -125.5t-52.5 -125.5t-125.5 -52.5t-125.5 52.5t-52.5 125.5q-1 73 51.5 125.5t126.5 52.5z" />
    <glyph glyph-name="ellipsis" unicode="&#x2026;" horiz-adv-x="1000" 
d="M167 -1q-29 0 -50.5 21t-21.5 51t21.5 51.5t50.5 21.5q30 0 51.5 -21.5t21.5 -51.5t-21.5 -51t-51.5 -21zM499 -1q-29 0 -50.5 21t-21.5 51t21.5 51.5t50.5 21.5q30 0 51.5 -21.5t21.5 -51.5t-21.5 -51t-51.5 -21zM832 -1q-29 0 -50.5 21t-21.5 51t21.5 51.5t50.5 21.5
q30 0 51.5 -21.5t21.5 -51.5t-21.5 -51t-51.5 -21z" />
    <glyph glyph-name="perthousand" unicode="&#x2030;" horiz-adv-x="1000" 
d="M584 718l-416 -756h-81l416 756h81zM163 692q69 0 104.5 -47t35.5 -124t-35.5 -124t-104.5 -47t-104.5 47t-35.5 124t35.5 124t104.5 47zM163 622q-46 0 -46 -101t46 -101t46 101t-46 101zM508 330q69 0 104.5 -47t35.5 -124t-35.5 -124t-104.5 -47t-104.5 47t-35.5 124
t35.5 124t104.5 47zM837 330q69 0 104.5 -47t35.5 -124t-35.5 -124t-104.5 -47t-104.5 47t-35.5 124t35.5 124t104.5 47zM508 260q-46 0 -46 -101t46 -101t46 101t-46 101zM837 260q-46 0 -46 -101t46 -101t46 101t-46 101z" />
    <glyph glyph-name="guilsinglleft" unicode="&#x2039;" horiz-adv-x="278" 
d="M127 292l84 -70v-116l-144 113v146l144 113v-116z" />
    <glyph glyph-name="guilsinglright" unicode="&#x203a;" horiz-adv-x="278" 
d="M151 292l-84 70v116l144 -113v-146l-144 -113v116z" />
    <glyph glyph-name="fraction" unicode="&#x2044;" horiz-adv-x="167" 
d="M335 718l-416 -756h-87l416 756h87z" />
    <glyph glyph-name="trademark" unicode="&#x2122;" horiz-adv-x="990" 
d="M31 636v76h332v-76h-119v-336h-94v336h-119zM809 612l-114 -312h-68l-114 312h-2v-312h-88v412h133l106 -282l104 282h133v-412h-88v312h-2z" />
    <glyph glyph-name="minus" unicode="&#x2212;" horiz-adv-x="600" 
d="M553 306v-100h-506v100h506z" />
    <glyph glyph-name="fi" unicode="&#xfb01;" horiz-adv-x="537" 
d="M5 418v88h74v50q0 74 43 115t106 41q37 0 82 -13v-99q-20 6 -40 6q-36 0 -52.5 -15.5t-16.5 -48.5v-36h109v-88h-109v-418h-122v418h-74zM416 588q-26 0 -44 18t-18 44t18 44t44 18t44 -18t18 -44t-18 -44t-44 -18zM477 506v-506h-122v506h122z" />
    <glyph glyph-name="fl" unicode="&#xfb02;" horiz-adv-x="537" 
d="M477 713v-713h-122v713h122zM5 418v88h74v50q0 74 43 115t106 41q37 0 82 -13v-99q-20 6 -40 6q-36 0 -52.5 -15.5t-16.5 -48.5v-36h109v-88h-109v-418h-122v418h-74z" />
    <glyph glyph-name="w.alt" horiz-adv-x="1942" 
d="M1788 0h-120l-96 339h-2l-96 -339h-120l-83 288l-83 -288h-120l-96 339h-2l-96 -339h-120l-83 288l-83 -288h-120l-96 339h-2l-96 -339h-120l-146 506h126l85 -344h2l95 344h110l95 -344h2l85 344h126l85 -344h2l95 344h110l95 -344h2l85 344h126l85 -344h2l95 344h110
l95 -344h2l85 344h126z" />
    <glyph glyph-name="www" horiz-adv-x="1942" 
d="M1788 0h-120l-96 339h-2l-96 -339h-120l-83 288l-83 -288h-120l-96 339h-2l-96 -339h-120l-83 288l-83 -288h-120l-96 339h-2l-96 -339h-120l-146 506h126l85 -344h2l95 344h110l95 -344h2l85 344h126l85 -344h2l95 344h110l95 -344h2l85 344h126l85 -344h2l95 344h110
l95 -344h2l85 344h126z" />
  </font>
</defs>
</svg>
