<?xml version="1.0" encoding="utf-8"?>
<!-- Generator: Adobe Illustrator 19.1.0, SVG Export Plug-In . SVG Version: 6.00 Build 0)  -->
<svg version="1.1" id="Lager_1" xmlns:sketch="http://www.bohemiancoding.com/sketch/ns"
	 xmlns="http://www.w3.org/2000/svg" xmlns:xlink="http://www.w3.org/1999/xlink" x="0px" y="0px" viewBox="-559 458 160 39.8"
	 style="enable-background:new -559 458 160 39.8;" xml:space="preserve">
<style type="text/css">
	.st0{fill:#7BC5BD;}
</style>
<title>Regnet Co Logo + Oval 1 + WWW</title>
<desc>Created with Sketch.</desc>
<g id="Welcome" sketch:type="MSPage">
	<g id="Desktop-HD" transform="translate(-640.000000, -42.000000)" sketch:type="MSArtboardGroup">
		<g id="Regnet-Co-Logo-_x2B_-Oval-1-_x2B_-WWW" transform="translate(640.000000, 42.000000)" sketch:type="MSLayerGroup">
			<g id="Regnet-Co-Logo" sketch:type="MSShapeGroup">
				<path id="Fill-1" class="st0" d="M-533.1,487.8c-0.5,0-1,0-1.6,0c-5.1-0.2-6.6-1.4-8.3-4.3c-1.1-1.8-2.3-4.2-3.4-6.6
					c-0.6-1.4-1.2-2-2.5-2.1h-0.8v6.7c0,3.7,0.4,4.1,3.3,4.4v1.5h-12.3v-1.5c3.1-0.2,3.4-0.7,3.4-4.4v-17.4c0-3.6-0.3-3.9-3.2-4.2
					v-1.5h11.9c3.2,0,5.2,0.5,6.9,1.6c1.7,1.2,2.8,3.2,2.8,5.9c0,3.8-2.2,6-5.1,7.3c0.6,1.4,2.1,4.4,3.4,6.5
					c1.4,2.4,2.3,3.7,3.1,4.7c1,1.1,1.8,1.8,2.6,2.1L-533.1,487.8L-533.1,487.8z M-548.4,473c1.7,0,2.7-0.3,3.7-1.1
					c1.3-1.1,1.9-2.9,1.9-5.3c0-4.7-2.5-6.4-4.8-6.4c-0.9,0-1.4,0.2-1.7,0.4c-0.2,0.3-0.3,0.7-0.3,1.7V473H-548.4L-548.4,473z"/>
				<path id="Fill-2" class="st0" d="M-516.1,483.2c-2.4,3.7-5.6,4.7-7.4,4.7c-5.6,0-8.7-4.5-8.7-9.6c0-3.8,1.6-6.7,3.1-8.2
					c1.7-1.8,4-3.2,6.4-3.2c4,0,6.8,3.6,6.8,7.2c0,1-0.2,1.5-1.2,1.7c-0.6,0.1-5.8,0.5-9.9,0.7c0.1,4.8,2.7,7.4,5.6,7.4
					c1.8,0,3.1-0.6,4.6-1.8L-516.1,483.2L-516.1,483.2z M-526.9,474.5c1.7,0,3.2,0,4.9-0.1c0.7,0,0.9-0.2,0.9-1
					c0-2.2-0.9-4.7-2.4-4.7C-525.1,468.6-526.6,471-526.9,474.5L-526.9,474.5z"/>
				<path id="Fill-3" class="st0" d="M-494.7,467.9c-0.3,0.9-1,2.1-1.6,2.6l-2.4-0.2c0.8,0.9,1.2,2,1.2,3.5c0,4.6-3.7,6.8-7.9,6.8
					c-0.4,0-1-0.1-1.9-0.1c-0.4,0.3-0.7,0.9-0.7,1.3c0,0.7,0.7,1.7,2.5,1.7c1.4,0,2.7,0,4,0c3.3,0,6.4,1.3,6.4,5.3
					c0,4.9-5.3,9-11.2,9c-5.4,0-7.9-2.9-7.9-5.4c0-0.9,0.4-1.5,1.2-2.2c0.9-0.8,2.3-1.7,3.2-2.3c-1.6-0.7-2.5-1.8-3.1-2.6
					c-0.4-0.7-0.6-1.5-0.5-2.2c2.3-0.9,3.7-2.1,4.4-3c-2.5-0.9-4.3-3.1-4.3-5.9c0-5,4.1-7.3,8.1-7.3c1.9,0,3.2,0.4,4.6,1.3
					c2-0.1,3.9-0.4,5.6-0.5L-494.7,467.9L-494.7,467.9z M-508.8,489c-0.5,0.6-0.9,1.3-0.9,2.2c0,2.3,2.3,4.3,5.5,4.3
					c3.2,0,5-1.8,5-4.1c0-1.6-1-2.4-2.3-2.8c-1.1-0.3-2.1-0.4-3.7-0.4C-507.3,488.1-508.2,488.3-508.8,489L-508.8,489z
					 M-507.8,473.5c0,3.4,1.1,5.6,2.8,5.6c1.5,0,2.3-1.7,2.3-5c0-3.2-0.9-5.6-2.8-5.6C-506.7,468.5-507.8,470.2-507.8,473.5
					L-507.8,473.5z"/>
				<path id="Fill-4" class="st0" d="M-482,487.3v-1.4c1.8-0.2,2-0.4,2-3.2v-8.2c0-3.1-1.2-4.1-2.7-4.1c-1.1,0-2,0.4-3,1.3v11.2
					c0,2.7,0.3,2.9,1.9,3.1v1.4h-10v-1.4c2.5-0.3,2.7-0.4,2.7-3.2V473c0-2.7-0.1-2.9-2.1-3.3v-1.2c2.7-0.3,5.3-0.9,7.5-1.7v3.1
					c0.9-0.6,1.6-1.3,2.5-1.8c1.2-0.8,2-1.3,3.4-1.3c3.5,0,5.3,2.7,5.3,6.9v9c0,2.8,0.3,2.9,2.3,3.2v1.4H-482"/>
				<path id="Fill-5" class="st0" d="M-454.3,483.2c-2.4,3.7-5.6,4.7-7.4,4.7c-5.6,0-8.7-4.5-8.7-9.6c0-3.8,1.6-6.7,3.1-8.2
					c1.7-1.8,4-3.2,6.4-3.2c4,0,6.8,3.6,6.8,7.2c0,1-0.2,1.5-1.2,1.7c-0.6,0.1-5.8,0.5-9.9,0.7c0.1,4.8,2.7,7.4,5.6,7.4
					c1.8,0,3.1-0.6,4.6-1.8L-454.3,483.2L-454.3,483.2z M-465,474.5c1.7,0,3.2,0,4.9-0.1c0.7,0,0.9-0.2,0.9-1c0-2.2-0.9-4.7-2.4-4.7
					C-463.2,468.6-464.8,471-465,474.5L-465,474.5z"/>
				<path id="Fill-6" class="st0" d="M-443.2,487.4c-0.7,0.3-1.3,0.5-1.8,0.5c-3.1,0-5.1-1.6-5.1-5.6v-12.8h-2.5l-0.2-0.5l1.2-1.6
					h1.6v-3.2l4.8-3.4l0.6,0.3v6.3h4.2c0.4,0.5,0.4,1.8-0.3,2.1h-3.9v11.3c0,3.4,1.2,4,2.3,4c1,0,1.6-0.2,2.2-0.5l0.4,1.5
					L-443.2,487.4"/>
				<path id="Fill-7" class="st0" d="M-435,484.1h35.8v3.1H-435V484.1z"/>
				<path id="Fill-8" class="st0" d="M-418.6,474.5c-1.3,1.9-3,3.2-4.9,3.2c-3.9,0-6.2-3.2-6.2-6.7c0-2.3,1.1-4.5,3-6
					c1.7-1.3,3.4-1.9,4.7-1.9c1,0,1.9,0.3,2.4,0.8c0.5,0.4,0.6,0.8,0.6,1.1c0,1-0.9,1.8-1.3,1.8c-0.2,0-0.4-0.1-0.6-0.4
					c-1.1-1.1-1.9-1.7-2.8-1.7c-1.3,0-2.3,1.7-2.3,4.8c0,4.2,2.5,5.5,3.8,5.5c1.2,0,2-0.3,3-1.2L-418.6,474.5"/>
				<path id="Fill-9" class="st0" d="M-404.4,470.1c0,5.1-3.2,7.6-6.6,7.6c-4.5,0-6.6-3.6-6.6-7c0-5.2,3.6-7.6,6.7-7.6
					C-406.9,463.1-404.4,466.4-404.4,470.1L-404.4,470.1z M-413.5,469.6c0,3.9,1,6.9,2.7,6.9c1,0,2.1-0.9,2.1-5.5
					c0-4.2-1-6.7-2.7-6.7C-412.4,464.3-413.5,466-413.5,469.6L-413.5,469.6z"/>
			</g>
		</g>
	</g>
</g>
</svg>
